<svg xmlns="http://www.w3.org/2000/svg" viewBox="0 0 400 400"><title>nosk-cursive-01</title><path d="M285,194.4c-4.9,2-5.6,12.8-2.4,38.9,1.1,9.1,2.7,18,3.4,19.7a13.72,13.72,0,0,0,5,5.2c4.1,2.4,4.4,2,1.6-2.3-2.6-3.9-2.7-11-.2-12,3.3-1.4,23.8-1.7,37.2-.6,22.6,2,34.6,2.5,33.5,1.3-.9-1-26.4-5-52.5-8.3-10.4-1.3-14-2.3-14-3.9,0-.5,2.2-3.4,4.9-6.2,20-21.7,23.1-25.4,23.1-27.5,0-3.6-3.7-2.9-7.3,1.4-12.3,14.4-23.6,23.8-25.9,21.5-.8-.8-.8-4.1,0-11.8,1.1-11.1.6-14.7-2.3-15.8a6,6,0,0,0-1.8-.5A18.28,18.28,0,0,0,285,194.4Z"/><path d="M252.55,197.5c-6.3,1.2-17,6.9-19.4,10.2a12.1,12.1,0,0,0,0,13.4c2.7,3.8,13.5,9.2,27.2,13.8,13.5,4.5,15.1,6.2,9.5,9.9-4.3,2.9-13.6,5.2-24.1,6.2-4,.4-7.5,1.1-7.8,1.6-.8,1.3,6,3.8,10.4,3.8,9.1,0,31-7.6,31.4-10.9.8-8.1-6.8-13.9-22.7-17.1-12-2.4-20.5-8.1-20.5-13.7,0-6.3,5.5-9.6,18.6-11.4,9-1.2,17-4.2,15.9-5.9C270.35,196.2,258.75,196.3,252.55,197.5Z"/><path d="M177.05,185.2a69.74,69.74,0,0,0-20.4,6.2c-15.1,7.7-22.2,21.6-19.2,37.7,2.1,11.4,9.4,20.5,22.1,27.2l6,3.2.9-2.3c.5-1.3,2.7-6.2,4.9-11l4-8.7-2.4-1.6a21.14,21.14,0,0,1-5-5.5c-5.5-8.3-.5-17.5,10.8-20,8-1.8,14.7.5,18.8,6.5,4.7,6.8,3.8,12.8-2.5,17.5-1.9,1.4-3.5,2.8-3.5,3.1,0,.9,7.3,18,8.7,20.4,1.2,2,1.4,1.9,7.8-1.5,19.1-10,26.6-28.2,19-46.3-3.3-8.1-16.2-18.8-26.6-22.2C195.25,186.1,182.25,184.7,177.05,185.2Z" style="fill:#009042"/><path d="M63.15,285c-1.4,1.5-2.6,3-2.6,3.5a9.31,9.31,0,0,1-.6,2.2c-.6,1.6,6.1,6.1,7.7,5.1.6-.3,2.1.2,3.6,1.1,3.3,2.2,4.3.9,4.3-5.6C75.55,283.2,68.65,279.6,63.15,285Z"/><path d="M94.05,289.9c-5.3,5.6-6.1,15.4-1.2,14.1,1.5-.4,2.7.1,3.9,1.6,1.5,2.1,1.8,2.1,3.5.6,1.3-1.2,2.3-1.4,3.6-.6,2.4,1.3,2.9.7,3.8-4.9.9-6.2-.4-9-5.9-12l-4.3-2.4Z"/><path d="M44.75,159.1c-5,9.7-8.7,33-7.7,47.8,1.2,18.5,4.7,31.2,11.3,41,4.5,6.6,18.4,23.6,18.9,23.1.2-.2-2.7-5.7-6.5-12.3-8.6-15-11-20.7-13.3-30.8-2.4-10.3-2.4-21,0-33.2,1.9-9.4,5.7-23.6,8-29.7,1.7-4.4.5-4.4-1.4,0-2,5-6.2,10.4-8,10.4-3,0-3-8.4.1-15.9C48.15,154.7,47.05,154.4,44.75,159.1Z"/><path d="M65.55,93.6c-3.8,1.4-10.6,9.6-11.5,13.9a17.17,17.17,0,0,1-3.2,5.6c-3.9,4.4-8.3,10.5-8.3,11.6,0,.5,1.8-.7,4-2.7,5.5-4.9,8.4-5.5,11.8-2.3,8.6,8,19.8,8.3,25.4.6,5.5-7.4,2.7-18.8-4.7-20.1-1.8-.3-2,.2-1.7,3.9.4,5.1-.9,7.8-5.1,10.3s-6.9,2.5-9.5-.3c-3.3-3.5-3-10,.6-13.7,9.8-9.8,30.3-4.2,37.9,10.4,2.4,4.5,2.1,14-.5,19.6-2.8,5.9-2.9,12.7-.1,15.6,3.8,4.1,12.5,30.7,15.3,46.9,2.1,12,2.1,23.4.1,24.1-4.8,1.9-11.7-3.8-20.1-16.4-10.3-15.2-19.9-27.7-24.1-31-5.7-4.5-6.1-4-1.2,1.7a155.34,155.34,0,0,1,11.3,16c3.9,6,12.9,20.1,20,31.2,11.6,18.1,13,20.7,13.4,25.4.5,6.4-1.8,18.2-6.1,31.6-1.8,5.4-3,9.9-2.7,9.9s2.2-2.5,4.2-5.6c7.5-11.3,12.7-29.4,14.8-51.1.5-6,1.4-15.5,2-21.3,1.1-12.4,2.4-17.4,5.1-20.1,1.5-1.5,2.3-1.7,3.7-.8,1.7,1.1,6.6,6.9,8.2,9.9,2,3.3,2.2-.5.6-8.7-3-15-19.1-45.6-33.4-63.2a65.08,65.08,0,0,1-7.1-11.5,35.34,35.34,0,0,0-29.6-20.2A33.34,33.34,0,0,0,65.55,93.6Z"/><path d="M62.66,138s0-4.26,4.6-2.63,10.48,5.87,16.52-1c7.21-8.18,8.78-9.16,9.48-13.12.56-3.22,2.18-9-4.57-16.68-5.36-6.11-9.85-6-11.73-5.08a1.63,1.63,0,0,0-1,1.42c.43,1.16-1.69,11.77-6.88,13.4s-5.81-4.9-4.62-11c1.22-6.29,11.08-7.18,14-6.73,5.1.78,15,5.66,16.83,11.5s6.21,11-5.8,29.81-5.31,28.32-5.31,30.89-3.56,8.06-9.07-4.1S62.46,140.26,62.66,138Z" style="fill:#ffb618"/><path d="M66.88,105c-.8,2.1,1.3,4.2,2.8,2.7,1.3-1.3.5-4.3-1.1-4.3C68,103.4,67.25,104.1,66.88,105Z"/><path d="M146.39,266.51a.18.18,0,0,1,.16.14c0,.12-.09.2-.28.23a9.65,9.65,0,0,0-2.75,1.58,17.72,17.72,0,0,0-2.76,2.78,14.7,14.7,0,0,0-2.16,3.83,12.27,12.27,0,0,0-.86,4.46q0,3.06,2.16,3.06a5.6,5.6,0,0,0,3-1.12,15.91,15.91,0,0,0,5.69-6.77,10.57,10.57,0,0,0,1-4.38c0-1.41-.48-2.11-1.45-2.11a4.76,4.76,0,0,0-2.76,1.26,12.09,12.09,0,0,0-2.77,3.17,6.92,6.92,0,0,0-1.18,3.61c0,1.13.39,1.69,1.17,1.69a2.88,2.88,0,0,0,1.67-.7,7,7,0,0,0,1.67-1.87c.06-.13.13-.19.21-.19s.13.05.13.14c0,.43-.53,1.1-1.6,2a4.57,4.57,0,0,1-2.75,1.38c-.9,0-1.35-.72-1.35-2.18a7.3,7.3,0,0,1,1.42-3.88,15,15,0,0,1,3.36-3.67,5.88,5.88,0,0,1,3.34-1.49c1.22,0,1.84.91,1.84,2.74a10,10,0,0,1-1.2,4.45,18.56,18.56,0,0,1-6.58,7.32,6.61,6.61,0,0,1-3.42,1.24q-2.57,0-2.56-3.63a11.39,11.39,0,0,1,.88-4.36,14.26,14.26,0,0,1,2.12-3.67,22.71,22.71,0,0,1,2.65-2.71,15,15,0,0,1,2.46-1.78A3.9,3.9,0,0,1,146.39,266.51Z" style="fill:#2e28a0"/><path d="M149.49,279a5.64,5.64,0,0,1,2.59-.85c.71,0,1.07.3,1.07.9a3.59,3.59,0,0,1-1.53,2.54,4.7,4.7,0,0,1-3.05,1.32.58.58,0,0,1-.34-.14.5.5,0,0,1-.21-.46c0-.21.17-.46.52-.75a1.87,1.87,0,0,1,.62-.44.64.64,0,0,1,.2,0,.8.8,0,0,1,.21.13.22.22,0,0,1,.1.16.26.26,0,0,1-.11.18,3.58,3.58,0,0,0-.49.43c-.18.18-.27.3-.27.37s.08.1.23.1a3.27,3.27,0,0,0,1-.33,4.74,4.74,0,0,0,1.47-1.11,2.39,2.39,0,0,0,.74-1.69c0-.38-.23-.57-.67-.57a5,5,0,0,0-2.39.78q-2,3.31-2.49,4.23a45.75,45.75,0,0,1-3.56,5.74c-1,1.37-2,2.06-2.81,2.06-.27,0-.41-.17-.41-.51q0-2,2.68-5.57a26.94,26.94,0,0,1,5.69-5.74c1.55-2.56,2.48-4.17,2.8-4.81a4,4,0,0,1-.85.71l-1.31.9a.79.79,0,0,1-.25.05.13.13,0,0,1-.14-.12,15.84,15.84,0,0,0,3.2-2.48,2,2,0,0,0,.28-.35.44.44,0,0,1,.32,0c.17,0,.25.09.25.23a2.59,2.59,0,0,1-.33.63C152,274.91,151.09,276.4,149.49,279ZM146,283.67l1.86-3.18a23.54,23.54,0,0,0-5,5.35q-2.35,3.35-2.35,4.94c0,.13,0,.2.14.2C141.63,291,143.4,288.54,146,283.67Z" style="fill:#2e28a0"/><path d="M155,280.47q-1.38,0-1.38-.6c0-.47.54-1,1.63-1.69a5.87,5.87,0,0,1,3-1c.44,0,.66.13.66.41s-.11.32-.34.51a3.42,3.42,0,0,1-.67.43,1.4,1.4,0,0,1-.37.16.18.18,0,0,1-.18-.11c0-.11.05-.22.24-.34s.29-.24.29-.37-.17-.21-.52-.21a3.64,3.64,0,0,0-1.62.72c-.74.49-1.1.88-1.1,1.19s.26.34.8.34l.51,0c.24,0,.37,0,.37.09s-.38.35-1.14.83-1.14.88-1.14,1.22.25.57.75.57a4.53,4.53,0,0,0,1.69-.39,23.67,23.67,0,0,0,2.76-1.42l.43-.28a.36.36,0,0,1,0,.18c0,.1-.07.17-.21.23a24.11,24.11,0,0,1-2.67,1.58,5.75,5.75,0,0,1-2.61.75c-.77,0-1.16-.26-1.16-.77S153.68,281.31,155,280.47Z" style="fill:#2e28a0"/><path d="M159,281a10,10,0,0,0,1.15-.8,14.84,14.84,0,0,1,1.86-1.38c.23,0,.34.1.34.3a2.13,2.13,0,0,1-.35.92q-.36.61-.81,1.29a8.52,8.52,0,0,0-.51.8s0,0,.1,0a5.46,5.46,0,0,0,.91-.6l1.72-1.29c.6-.46,1-.72,1.06-.79a.66.66,0,0,1,.3-.1.28.28,0,0,1,.28.32,6.24,6.24,0,0,1-.79,1.16,3.65,3.65,0,0,0-.78,1.35c0,.14.17.21.5.21a3.93,3.93,0,0,0,1.46-.45,15.55,15.55,0,0,0,1.7-.91l.73-.46a.36.36,0,0,1,0,.18c0,.1-.07.17-.21.23-2.07,1.42-3.51,2.12-4.32,2.12-.48,0-.72-.18-.72-.55a1.9,1.9,0,0,1,.31-1c.21-.33.39-.6.54-.82a1.8,1.8,0,0,0,.23-.36l-2.5,1.82a7.51,7.51,0,0,1-1.64,1.06c-.09,0-.13-.11-.13-.32a5.08,5.08,0,0,1,.91-1.68,12.51,12.51,0,0,0,.9-1.45c0-.06,0-.09,0-.09l-.23.11-1.15.92-.44.3a1.22,1.22,0,0,1-.4.21c-.06,0-.08,0-.08-.11A.17.17,0,0,1,159,281Z" style="fill:#2e28a0"/><path d="M169.13,278.72a.37.37,0,0,1,.32-.18.61.61,0,0,1,.42.21c0,.06-.1.2-.3.41a11.62,11.62,0,0,0-1,1.44,3.91,3.91,0,0,0-.72,1.48c0,.15.12.25.35.28a3.93,3.93,0,0,0,1.43-.45,15.55,15.55,0,0,0,1.7-.91l.73-.46a.36.36,0,0,1,0,.18c0,.1-.07.17-.21.23-2.07,1.42-3.51,2.12-4.32,2.12a.53.53,0,0,1-.6-.6,3.68,3.68,0,0,1,.65-1.67A17,17,0,0,1,169.13,278.72Zm2.16-3a.31.31,0,0,1,.35.34,1.06,1.06,0,0,1-.32.7,1,1,0,0,1-.72.36c-.21,0-.32-.15-.32-.45a.82.82,0,0,1,.37-.7A1.19,1.19,0,0,1,171.29,275.69Z" style="fill:#2e28a0"/><path d="M171.39,281a10,10,0,0,0,1.15-.8,14.84,14.84,0,0,1,1.86-1.38c.23,0,.34.1.34.3a2.13,2.13,0,0,1-.35.92q-.36.61-.81,1.29a8.52,8.52,0,0,0-.51.8s.05,0,.1,0a5.46,5.46,0,0,0,.91-.6l1.72-1.29c.6-.46.95-.72,1.06-.79a.66.66,0,0,1,.3-.1.28.28,0,0,1,.28.32,6.24,6.24,0,0,1-.79,1.16,3.65,3.65,0,0,0-.78,1.35c0,.14.17.21.5.21a3.93,3.93,0,0,0,1.46-.45,15.55,15.55,0,0,0,1.7-.91l.73-.46a.36.36,0,0,1,0,.18c0,.1-.07.17-.21.23-2.07,1.42-3.51,2.12-4.32,2.12-.48,0-.72-.18-.72-.55a1.9,1.9,0,0,1,.31-1c.21-.33.39-.6.54-.82a1.8,1.8,0,0,0,.23-.36l-2.5,1.82a7.51,7.51,0,0,1-1.64,1.06c-.09,0-.13-.11-.13-.32a5.08,5.08,0,0,1,.91-1.68,12.51,12.51,0,0,0,.9-1.45c0-.06,0-.09,0-.09l-.23.11-1.15.92-.44.3a1.22,1.22,0,0,1-.4.21c-.06,0-.08,0-.08-.11A.17.17,0,0,1,171.39,281Z" style="fill:#2e28a0"/><path d="M185.44,278.1a1.42,1.42,0,0,1-.6,1c-.4.35-.68.53-.86.53s-.27-.05-.27-.14l.17-.2c.38-.36.57-.62.57-.79s-.11-.32-.34-.32a4.26,4.26,0,0,0-2.3,1.47c-1,1-1.48,1.68-1.48,2.14,0,.2.11.3.34.3a2.21,2.21,0,0,0,.93-.31,8.45,8.45,0,0,0,1-.63l.46-.32a2,2,0,0,0,.26-.28c.33-.41.56-.62.66-.62.25,0,.37.14.37.32-.4.58-1.14,1.79-2.23,3.61a7.72,7.72,0,0,1,.94-.07c.74,0,1.11.19,1.11.58a1.39,1.39,0,0,1-.43.81c-.28.33-.5.5-.65.5s-.23-.05-.23-.16.08-.16.25-.29a.58.58,0,0,0,.25-.47c0-.25-.16-.37-.48-.37a6.31,6.31,0,0,0-1.13.12c-.67,1.16-1.2,2.07-1.6,2.72s-.87,1.39-1.46,2.2c-1.1,1.55-2.07,2.32-2.92,2.32a.7.7,0,0,1-.78-.8c0-.95.65-2.2,1.94-3.73a9.82,9.82,0,0,1,4.32-3.1l1.28-2.44a7.68,7.68,0,0,1-.94.5,5.06,5.06,0,0,1-1.79.62c-.42,0-.62-.21-.62-.64a3.12,3.12,0,0,1,1-1.75,11,11,0,0,1,2.34-2,4.52,4.52,0,0,1,2.26-.87.69.69,0,0,1,.43.13A.6.6,0,0,1,185.44,278.1Zm-9.64,12.49c0,.32.13.48.37.48.78,0,2.36-2.1,4.74-6.32a8,8,0,0,0-3.6,2.74A5.84,5.84,0,0,0,175.8,290.59Z" style="fill:#2e28a0"/><path d="M190.2,280.79l-.57.37a.45.45,0,0,1-.18,0s-.08,0-.08-.09a.26.26,0,0,1,.07-.17,13.08,13.08,0,0,0,1.16-.84,3.39,3.39,0,0,1,1.27-.74c.19,0,.29.11.29.33a3.62,3.62,0,0,1-.71,1.37,9.61,9.61,0,0,0-.7,1.11c0,.06,0,.09.05.09a14.85,14.85,0,0,0,2.39-1.82,16.55,16.55,0,0,1,2.37-1.82c.23,0,.34.11.34.32a5.47,5.47,0,0,1-.79,1.42c-.53.8-.88,1.35-1.05,1.64a.14.14,0,0,0,.11,0,6.75,6.75,0,0,0,.93-.61c.57-.41,1.16-.84,1.77-1.3s1-.73,1.08-.8a.56.56,0,0,1,.3-.1.28.28,0,0,1,.28.32,6.85,6.85,0,0,1-.8,1.21,3.84,3.84,0,0,0-.79,1.39c0,.14.16.21.49.21a3.88,3.88,0,0,0,1.46-.45,15.75,15.75,0,0,0,1.71-.91l.73-.46a.39.39,0,0,1,0,.18c0,.1-.06.17-.2.23-2.07,1.42-3.51,2.12-4.33,2.12-.47,0-.71-.18-.71-.55a1.9,1.9,0,0,1,.31-1c.21-.33.39-.6.54-.82a1.8,1.8,0,0,0,.23-.36c-2.05,1.51-3.24,2.33-3.55,2.48a2,2,0,0,1-.68.21c-.14,0-.21-.15-.21-.46l1.66-2.57a17.68,17.68,0,0,0-1.79,1.26c-1,.77-1.81,1.41-2.37,1.91a.89.89,0,0,1-.62.39.35.35,0,0,1-.3-.39,11.05,11.05,0,0,1,.84-1.36,9.53,9.53,0,0,0,.84-1.36c0-.07,0-.11-.06-.11a.53.53,0,0,0-.2.08l-.32.22A1.65,1.65,0,0,1,190.2,280.79Z" style="fill:#2e28a0"/><path d="M202.64,278.72a.37.37,0,0,1,.32-.18.61.61,0,0,1,.42.21c0,.06-.1.2-.3.41a11.62,11.62,0,0,0-1,1.44,3.91,3.91,0,0,0-.72,1.48c0,.15.12.25.35.28a3.93,3.93,0,0,0,1.43-.45,15.55,15.55,0,0,0,1.7-.91l.73-.46a.36.36,0,0,1,0,.18c0,.1-.07.17-.21.23-2.07,1.42-3.51,2.12-4.32,2.12a.53.53,0,0,1-.6-.6,3.68,3.68,0,0,1,.65-1.67A17,17,0,0,1,202.64,278.72Zm2.16-3a.31.31,0,0,1,.35.34,1.06,1.06,0,0,1-.32.7,1,1,0,0,1-.72.36c-.21,0-.32-.15-.32-.45a.82.82,0,0,1,.37-.7A1.19,1.19,0,0,1,204.8,275.69Z" style="fill:#2e28a0"/><path d="M204.9,281a10,10,0,0,0,1.15-.8,14.84,14.84,0,0,1,1.86-1.38c.23,0,.34.1.34.3a2.13,2.13,0,0,1-.35.92q-.36.61-.81,1.29a8.52,8.52,0,0,0-.51.8s0,0,.1,0a5.46,5.46,0,0,0,.91-.6l1.72-1.29c.6-.46.95-.72,1.06-.79a.66.66,0,0,1,.3-.1.28.28,0,0,1,.28.32,6.24,6.24,0,0,1-.79,1.16,3.65,3.65,0,0,0-.78,1.35c0,.14.17.21.5.21a3.93,3.93,0,0,0,1.46-.45A15.55,15.55,0,0,0,213,281l.73-.46a.36.36,0,0,1,0,.18c0,.1-.07.17-.21.23-2.07,1.42-3.51,2.12-4.32,2.12-.48,0-.72-.18-.72-.55a1.9,1.9,0,0,1,.31-1c.21-.33.39-.6.54-.82a1.8,1.8,0,0,0,.23-.36l-2.5,1.82a7.51,7.51,0,0,1-1.64,1.06c-.09,0-.13-.11-.13-.32a5.17,5.17,0,0,1,.9-1.68,11.93,11.93,0,0,0,.91-1.45c0-.06,0-.09,0-.09l-.23.11-1.15.92-.44.3a1.22,1.22,0,0,1-.4.21c-.06,0-.08,0-.08-.11A.17.17,0,0,1,204.9,281Z" style="fill:#2e28a0"/><path d="M217.11,280.54a5.16,5.16,0,0,0-.16,1.33q0,.72.6.72a1.78,1.78,0,0,0,.54-.17,2.37,2.37,0,0,1,.43-.18s.06,0,.06.05-.16.37-.48.57a1.83,1.83,0,0,1-1,.3q-1,0-1-1.29a2.9,2.9,0,0,1,0-.46C215,282.49,214,283,213.37,283s-1-.22-1-.66c0-.66.57-1.49,1.69-2.48a6.45,6.45,0,0,1,3.21-1.69,25.52,25.52,0,0,1,3.24-5c1.27-1.57,2.26-2.35,2.95-2.35a.35.35,0,0,1,.3.2.69.69,0,0,1,.11.38c0,.5-.74,1.78-2.24,3.81A44.58,44.58,0,0,1,217.11,280.54Zm-3.61,1.63c0,.23.13.35.39.35.41,0,1.22-.58,2.41-1.73a13.14,13.14,0,0,1,.72-2,5.13,5.13,0,0,0-2.33,1.47C213.9,281.11,213.5,281.73,213.5,282.17ZM223,271.73c0-.12,0-.18-.13-.18-.27,0-.76.43-1.49,1.28a25.78,25.78,0,0,0-2.29,3.28,20.73,20.73,0,0,0-1.77,3.65,47.19,47.19,0,0,0,3.91-4.67Q223,272.68,223,271.73Z" style="fill:#2e28a0"/><path d="M220.84,280.2c-.74.67-1.21,1-1.41,1a.08.08,0,0,1-.09-.09.22.22,0,0,1,.07-.17,7.06,7.06,0,0,0,1.29-1,1.5,1.5,0,0,1-.12-.6,2,2,0,0,1,.81-1.49,2.26,2.26,0,0,1,1.35-.72.26.26,0,0,1,.3.29,3.74,3.74,0,0,1-.92,1.39c-.06.08-.13.15-.2.23l-.25.27a1.44,1.44,0,0,1-.19.21l.41.41.49.47a1.74,1.74,0,0,1,.5,1.26,1.59,1.59,0,0,1-.94,1.33,3.82,3.82,0,0,1-2,.56c-.68,0-1-.2-1-.61s.31-.78.94-1.12a7.06,7.06,0,0,1,2-.69,2.86,2.86,0,0,0-.52-.48A2.67,2.67,0,0,1,220.84,280.2Zm-.28,1.69q-.69.33-.69.78t.63.45a2.15,2.15,0,0,0,1.13-.3c.33-.2.49-.42.49-.67a2.56,2.56,0,0,0-.09-.69A4.38,4.38,0,0,0,220.56,281.89Zm.76-2.5.6-.64a2.69,2.69,0,0,0,.59-.87c0-.1,0-.15-.13-.15a1.25,1.25,0,0,0-.81.38,1.08,1.08,0,0,0-.41.74A.77.77,0,0,0,221.32,279.39Z" style="fill:#2e28a0"/><path d="M219.58,285.88q7.36,0,7.68-.05a4,4,0,0,1,.54,0c.15,0,.22,0,.22.09s-.08.16-.24.29a2.8,2.8,0,0,1-.83.39,4.17,4.17,0,0,1-1.32.19l-6.78,0a22.37,22.37,0,0,0-5.67.8,18,18,0,0,0-4.43,1.82,13.21,13.21,0,0,0-2.74,2.16,3.14,3.14,0,0,0-1,1.89c0,.63.47.94,1.4.94a8.24,8.24,0,0,0,3.65-1.21,14.69,14.69,0,0,0,3.81-2.88c.16-.17.28-.25.34-.25s.05,0,.05.06a.21.21,0,0,1,0,.12,8.63,8.63,0,0,1-3.15,3.3,8.34,8.34,0,0,1-4.76,1.74c-1.52,0-2.28-.44-2.28-1.31a3.76,3.76,0,0,1,1.29-2.35,16.61,16.61,0,0,1,3.34-2.63,20.2,20.2,0,0,1,5-2.17A20.52,20.52,0,0,1,219.58,285.88Zm-1,1.68s-.54,1.06-1.61,3.06q-4.4,8.16-6,11.27a1,1,0,0,1-.5.46,1.78,1.78,0,0,1-.57.16c-.13,0-.19,0-.19-.11s.65-1.3,1.95-3.69l3.9-7.14c1.3-2.37,1.93-3.56,1.9-3.58a.84.84,0,0,1,.46-.34l.57-.19Z" style="fill:#2e28a0"/><path d="M215.24,301.4a14.38,14.38,0,0,0,2.31-1.83,9.09,9.09,0,0,1,2.47-1.82c.25,0,.37.1.37.32a1.57,1.57,0,0,1-.46.78c-.31.35-.61.74-.91,1.15a2,2,0,0,0-.45,1.1c0,.17.13.26.38.26a4,4,0,0,0,1.35-.45A15.55,15.55,0,0,0,222,300l.73-.46a.36.36,0,0,1,0,.18c0,.1-.07.17-.21.23-2.07,1.42-3.51,2.12-4.32,2.12-.4,0-.6-.21-.6-.64a2.42,2.42,0,0,1,.32-1.06,7.63,7.63,0,0,1,.64-1l.3-.41c-.69.52-1.4,1.11-2.14,1.76l-1.67,1.47c-.39.33-.66.5-.81.5s-.23-.12-.23-.34a10,10,0,0,1,1.08-2.31q1.08-2,2.5-4.27a36.74,36.74,0,0,1,3-4.15c1-1.24,1.82-1.86,2.36-1.86a.49.49,0,0,1,.48.32.51.51,0,0,1,.07.28c0,1.06-1.58,3.09-4.76,6.09-.6.59-1.18,1.12-1.75,1.61A15.5,15.5,0,0,0,215.24,301.4Zm7.49-10.83c0-.15,0-.23-.11-.23-.31,0-1,.67-1.93,2s-2,2.93-3.13,4.72Q222.74,292.37,222.73,290.57Z" style="fill:#2e28a0"/><path d="M222.25,300.16a.41.41,0,0,1-.17,0c-.06,0-.08,0-.08-.09a.22.22,0,0,1,.07-.17,8.91,8.91,0,0,0,2.07-1.72c-.69-.22-1-.52-1-.91a2,2,0,0,1,.78-1.31,2.29,2.29,0,0,1,1.48-.72c.3,0,.46.18.46.55a2.84,2.84,0,0,1-.86,1.81c.74.13,1.11.3,1.11.53a.78.78,0,0,1-.4.7,4.41,4.41,0,0,0-.94.87,1.92,1.92,0,0,0-.52,1.24.38.38,0,0,0,.09.25.48.48,0,0,0,.39.12,4.1,4.1,0,0,0,1.26-.45,14.87,14.87,0,0,0,1.71-.91l.73-.46a.36.36,0,0,1,0,.18c0,.1-.07.17-.21.23-2.07,1.42-3.51,2.12-4.33,2.12a.53.53,0,0,1-.59-.6,1.91,1.91,0,0,1,.33-1,3.77,3.77,0,0,1,.74-.87c.26-.23.51-.45.73-.66s.33-.34.33-.4-.09-.1-.28-.12a5.89,5.89,0,0,1-.75-.11A10.44,10.44,0,0,1,222.25,300.16Zm1.43-3.2c0,.31.33.53,1,.65a2.18,2.18,0,0,0,.6-1.28c0-.36-.12-.54-.35-.54a1.33,1.33,0,0,0-.8.4A1.09,1.09,0,0,0,223.68,297Z" style="fill:#2e28a0"/><path d="M232.78,300.09a3.08,3.08,0,0,1-1.65.44h-.28a6.18,6.18,0,0,1-1.32,1.16,2.36,2.36,0,0,1-1.21.45c-.47,0-.71-.31-.71-.92a3.62,3.62,0,0,1,1-2.14,1.85,1.85,0,0,1-.09-.62,1.75,1.75,0,0,1,.7-1.39,2.17,2.17,0,0,1,1.37-.59c.93,0,1.4.51,1.4,1.52a3.87,3.87,0,0,1-.87,2.21h.27a2.3,2.3,0,0,0,1.27-.35.25.25,0,0,1,.18-.07c.08,0,.12,0,.12.08S232.89,300,232.78,300.09Zm-3.9-.5a2.59,2.59,0,0,0-.37,1.38c0,.27.12.41.37.41a2.55,2.55,0,0,0,1.54-.92A2.29,2.29,0,0,1,228.88,299.59Zm1.7-2.14a.49.49,0,0,1,.18-.05c.05,0,.07,0,.07.1s-.08.17-.25.29a8.09,8.09,0,0,0-1.38,1.29,2.38,2.38,0,0,0,1.54,1.06,3.16,3.16,0,0,0,.89-2,1,1,0,0,0-.34-.8,1.36,1.36,0,0,0-.89-.28,1.74,1.74,0,0,0-1,.31.87.87,0,0,0-.46.67,2.07,2.07,0,0,0,.07.56A6,6,0,0,1,230.58,297.45Z" style="fill:#2e28a0"/><path d="M235.36,301.47a2,2,0,0,1,.38-.85,9,9,0,0,1,.51-.76l.38-.5q-2.74,2.47-3.78,2.48-.57,0-.57-.48,0-.69,2.32-3.89a.35.35,0,0,1,.3-.18c.35.1.53.18.53.23a.82.82,0,0,1-.14.27,14.65,14.65,0,0,0-2,3c0,.23.08.34.23.34.43,0,1.2-.5,2.29-1.49a19,19,0,0,0,2.38-2.45.33.33,0,0,1,.3-.16c.31.06.46.13.46.19l-.69,1-.71,1c-.19.25-.38.53-.58.82a4.85,4.85,0,0,0-.69,1.15c0,.15.13.23.38.23a4,4,0,0,0,1.35-.45,15.55,15.55,0,0,0,1.7-.91l.74-.46a.62.62,0,0,1,0,.18c0,.1-.07.17-.21.23-2.07,1.42-3.51,2.12-4.32,2.12A.53.53,0,0,1,235.36,301.47Z" style="fill:#2e28a0"/><path d="M245.64,297.1a1.42,1.42,0,0,1-.6,1c-.4.35-.68.53-.86.53s-.26-.05-.26-.14l.16-.2c.38-.36.57-.62.57-.79s-.11-.32-.34-.32a4.26,4.26,0,0,0-2.3,1.47c-1,1-1.47,1.68-1.47,2.14q0,.3.33.3a2.21,2.21,0,0,0,.93-.31,8.45,8.45,0,0,0,1-.63l.46-.32a2,2,0,0,0,.26-.28c.33-.41.56-.62.66-.62.25,0,.37.14.37.32-.4.58-1.14,1.79-2.23,3.61a7.72,7.72,0,0,1,.94-.07c.74,0,1.11.19,1.11.58a1.39,1.39,0,0,1-.43.81c-.28.33-.5.5-.65.5s-.23-.05-.23-.16.08-.16.25-.29a.58.58,0,0,0,.25-.47c0-.25-.16-.37-.48-.37a6.31,6.31,0,0,0-1.13.12c-.67,1.16-1.2,2.07-1.59,2.72s-.88,1.39-1.47,2.2c-1.1,1.55-2.07,2.32-2.92,2.32a.7.7,0,0,1-.78-.8c0-.95.65-2.2,1.95-3.73a9.74,9.74,0,0,1,4.31-3.1l1.29-2.44a8.94,8.94,0,0,1-1,.5,5,5,0,0,1-1.79.62.56.56,0,0,1-.62-.64,3.12,3.12,0,0,1,1-1.75,11.27,11.27,0,0,1,2.34-2,4.52,4.52,0,0,1,2.26-.87.69.69,0,0,1,.43.13A.6.6,0,0,1,245.64,297.1ZM236,309.59c0,.32.13.48.37.48.78,0,2.36-2.1,4.74-6.32a8,8,0,0,0-3.6,2.74A5.84,5.84,0,0,0,236,309.59Z" style="fill:#2e28a0"/><path d="M246,301.4a13.41,13.41,0,0,0,2.31-1.83,9.26,9.26,0,0,1,2.47-1.82c.25,0,.37.1.37.32a1.49,1.49,0,0,1-.46.78c-.31.35-.61.74-.91,1.15a2,2,0,0,0-.45,1.1c0,.17.13.26.38.26a4,4,0,0,0,1.35-.45,15.55,15.55,0,0,0,1.7-.91l.74-.46a.62.62,0,0,1,0,.18c0,.1-.07.17-.21.23-2.07,1.42-3.51,2.12-4.32,2.12-.4,0-.6-.21-.6-.64a2.42,2.42,0,0,1,.32-1.06,6.74,6.74,0,0,1,.65-1l.3-.41c-.69.52-1.41,1.11-2.14,1.76l-1.68,1.47c-.39.33-.65.5-.81.5s-.23-.12-.23-.34a10,10,0,0,1,1.08-2.31c.72-1.32,1.56-2.74,2.5-4.27a35.56,35.56,0,0,1,3-4.15c1-1.24,1.82-1.86,2.35-1.86a.51.51,0,0,1,.49.32.61.61,0,0,1,.07.28q0,1.59-4.77,6.09c-.59.59-1.18,1.12-1.74,1.61A15.29,15.29,0,0,0,246,301.4Zm7.5-10.83c0-.15,0-.23-.12-.23-.31,0-.95.67-1.93,2s-2,2.93-3.13,4.72Q253.51,292.37,253.51,290.57Z" style="fill:#2e28a0"/><path d="M266.5,285.51c.08,0,.13.05.16.14s-.09.2-.27.23a9.52,9.52,0,0,0-2.75,1.58,16.9,16.9,0,0,0-2.76,2.78,14.44,14.44,0,0,0-2.17,3.83,12.27,12.27,0,0,0-.86,4.46q0,3.06,2.16,3.06a5.57,5.57,0,0,0,3-1.12,15.59,15.59,0,0,0,3.17-2.8,16,16,0,0,0,2.52-4,10.59,10.59,0,0,0,1-4.38c0-1.41-.49-2.11-1.45-2.11a4.76,4.76,0,0,0-2.76,1.26,11.91,11.91,0,0,0-2.77,3.17,6.94,6.94,0,0,0-1.19,3.61c0,1.13.39,1.69,1.18,1.69a2.86,2.86,0,0,0,1.66-.7,7,7,0,0,0,1.67-1.87c.06-.13.13-.19.22-.19a.12.12,0,0,1,.13.14c0,.43-.54,1.1-1.6,2a4.6,4.6,0,0,1-2.75,1.38c-.91,0-1.36-.72-1.36-2.18a7.33,7.33,0,0,1,1.43-3.88,15,15,0,0,1,3.36-3.67,5.85,5.85,0,0,1,3.33-1.49c1.23,0,1.84.91,1.84,2.74a10,10,0,0,1-1.2,4.45,18.32,18.32,0,0,1-2.9,4.23,19.12,19.12,0,0,1-3.67,3.09,6.66,6.66,0,0,1-3.43,1.24q-2.55,0-2.55-3.63a11.57,11.57,0,0,1,.87-4.36,14,14,0,0,1,2.13-3.67,22.64,22.64,0,0,1,2.64-2.71A15,15,0,0,1,265,286.1,4,4,0,0,1,266.5,285.51Z" style="fill:#2e28a0"/><path d="M269.61,298a5.61,5.61,0,0,1,2.58-.85c.72,0,1.07.3,1.07.9a3.59,3.59,0,0,1-1.53,2.54,4.68,4.68,0,0,1-3,1.32.61.61,0,0,1-.35-.14.5.5,0,0,1-.21-.46c0-.21.18-.46.52-.75a2,2,0,0,1,.62-.44.76.76,0,0,1,.21,0,.8.8,0,0,1,.21.13c.06.06.1.11.1.16s0,.11-.12.18a4.29,4.29,0,0,0-.49.43c-.18.18-.26.3-.26.37s.07.1.23.1a3.25,3.25,0,0,0,1-.33,4.74,4.74,0,0,0,1.47-1.11,2.39,2.39,0,0,0,.74-1.69c0-.38-.22-.57-.67-.57a5.06,5.06,0,0,0-2.39.78q-2,3.31-2.48,4.23a46.84,46.84,0,0,1-3.57,5.74c-1,1.37-2,2.06-2.8,2.06q-.42,0-.42-.51,0-2,2.68-5.57a27.18,27.18,0,0,1,5.69-5.74c1.55-2.56,2.49-4.17,2.81-4.81a4.28,4.28,0,0,1-.85.71l-1.31.9a.85.85,0,0,1-.26.05.12.12,0,0,1-.13-.12,15.73,15.73,0,0,0,3.19-2.48,2,2,0,0,0,.28-.35.44.44,0,0,1,.32,0c.17,0,.25.09.25.23a2.59,2.59,0,0,1-.33.63Zm-3.5,4.65,1.86-3.18a23.76,23.76,0,0,0-5,5.35c-1.56,2.23-2.35,3.88-2.35,4.94,0,.13.05.2.14.2Q262.23,310,266.11,302.67Z" style="fill:#2e28a0"/><path d="M275.13,299.47q-1.38,0-1.38-.6c0-.47.54-1,1.63-1.69a5.87,5.87,0,0,1,2.94-1c.45,0,.67.13.67.41s-.12.32-.35.51a3.68,3.68,0,0,1-.66.43,1.78,1.78,0,0,1-.37.16.2.2,0,0,1-.19-.11c0-.11.05-.22.25-.34s.28-.24.28-.37-.17-.21-.51-.21a3.62,3.62,0,0,0-1.63.72c-.73.49-1.1.88-1.1,1.19s.27.34.81.34l.5,0c.25,0,.37,0,.37.09s-.38.35-1.14.83-1.14.88-1.14,1.22.25.57.75.57a4.49,4.49,0,0,0,1.69-.39,23.67,23.67,0,0,0,2.76-1.42l.44-.28a.62.62,0,0,1,0,.18c0,.1-.07.17-.21.23a24.9,24.9,0,0,1-2.66,1.58,5.81,5.81,0,0,1-2.61.75c-.78,0-1.17-.26-1.17-.77S273.79,300.31,275.13,299.47Z" style="fill:#2e28a0"/><path d="M279.08,300a9.22,9.22,0,0,0,1.15-.8,16.85,16.85,0,0,1,1.86-1.38c.23,0,.35.1.35.3a2.19,2.19,0,0,1-.36.92c-.24.41-.5.84-.8,1.29s-.47.71-.52.8.05,0,.1,0a5,5,0,0,0,.91-.6l1.73-1.29c.59-.46.95-.72,1.05-.79a.66.66,0,0,1,.3-.1.28.28,0,0,1,.28.32,5.87,5.87,0,0,1-.78,1.16,3.65,3.65,0,0,0-.78,1.35c0,.14.16.21.49.21a3.88,3.88,0,0,0,1.46-.45,14.67,14.67,0,0,0,1.7-.91l.74-.46a.62.62,0,0,1,0,.18c0,.1-.07.17-.2.23-2.07,1.42-3.52,2.12-4.33,2.12-.47,0-.71-.18-.71-.55a1.81,1.81,0,0,1,.31-1c.21-.33.39-.6.54-.82a2.63,2.63,0,0,0,.23-.36l-2.51,1.82a7.59,7.59,0,0,1-1.63,1.06c-.09,0-.14-.11-.14-.32a5.08,5.08,0,0,1,.91-1.68,13.76,13.76,0,0,0,.91-1.45c0-.06,0-.09-.05-.09l-.23.11-1.15.92c-.07.06-.22.16-.43.3a1.23,1.23,0,0,1-.41.21s-.08,0-.08-.11A.2.2,0,0,1,279.08,300Z" style="fill:#2e28a0"/><path d="M292.72,299.2c-.74.67-1.2,1-1.4,1s-.1,0-.1-.09a.26.26,0,0,1,.07-.17,7.06,7.06,0,0,0,1.29-1,1.49,1.49,0,0,1-.11-.6,2,2,0,0,1,.8-1.49,2.28,2.28,0,0,1,1.36-.72.26.26,0,0,1,.3.29,3.9,3.9,0,0,1-.92,1.39,2.19,2.19,0,0,1-.21.23,3.27,3.27,0,0,0-.24.27,2.18,2.18,0,0,1-.2.21l.42.41.48.47a1.71,1.71,0,0,1,.51,1.26,1.61,1.61,0,0,1-.95,1.33,3.82,3.82,0,0,1-2,.56c-.69,0-1-.2-1-.61s.32-.78.95-1.12a7,7,0,0,1,2-.69,3.08,3.08,0,0,0-.51-.48A2.51,2.51,0,0,1,292.72,299.2Zm-.28,1.69q-.69.33-.69.78c0,.3.21.45.64.45a2.11,2.11,0,0,0,1.12-.3c.33-.2.5-.42.5-.67a2.56,2.56,0,0,0-.09-.69A4.37,4.37,0,0,0,292.44,300.89Zm.76-2.5.6-.64a2.83,2.83,0,0,0,.6-.87c0-.1,0-.15-.14-.15a1.21,1.21,0,0,0-.8.38,1.06,1.06,0,0,0-.42.74A.77.77,0,0,0,293.2,298.39Z" style="fill:#2e28a0"/><path d="M300.91,300.09a3.14,3.14,0,0,1-1.66.44H299a6.47,6.47,0,0,1-1.33,1.16,2.33,2.33,0,0,1-1.2.45c-.48,0-.72-.31-.72-.92a3.62,3.62,0,0,1,1-2.14,1.85,1.85,0,0,1-.09-.62,1.75,1.75,0,0,1,.7-1.39,2.17,2.17,0,0,1,1.37-.59c.93,0,1.4.51,1.4,1.52a3.87,3.87,0,0,1-.87,2.21h.27a2.26,2.26,0,0,0,1.27-.35.29.29,0,0,1,.18-.07c.08,0,.12,0,.12.08S301,300,300.91,300.09Zm-3.91-.5a2.59,2.59,0,0,0-.37,1.38c0,.27.12.41.37.41a2.55,2.55,0,0,0,1.54-.92A2.29,2.29,0,0,1,297,299.59Zm1.7-2.14a.62.62,0,0,1,.18-.05c.05,0,.07,0,.07.1s-.08.17-.25.29a8.93,8.93,0,0,0-1.38,1.29,2.41,2.41,0,0,0,1.54,1.06,3.18,3.18,0,0,0,.9-2,1,1,0,0,0-.35-.8,1.33,1.33,0,0,0-.88-.28,1.71,1.71,0,0,0-1,.31.85.85,0,0,0-.46.67,1.74,1.74,0,0,0,.07.56A5.8,5.8,0,0,1,298.7,297.45Z" style="fill:#2e28a0"/><path d="M303.48,301.47a2,2,0,0,1,.38-.85c.26-.4.42-.65.51-.76l.38-.5c-1.83,1.65-3.08,2.48-3.77,2.48-.39,0-.58-.16-.58-.48s.78-1.76,2.32-3.89a.35.35,0,0,1,.3-.18c.36.1.53.18.53.23a.65.65,0,0,1-.14.27,14.84,14.84,0,0,0-2,3c0,.23.07.34.23.34.43,0,1.19-.5,2.29-1.49a19.49,19.49,0,0,0,2.37-2.45.35.35,0,0,1,.3-.16c.31.06.46.13.46.19q-.24.36-.69,1c-.29.4-.52.73-.71,1l-.57.82a4.24,4.24,0,0,0-.69,1.15c0,.15.12.23.38.23a3.94,3.94,0,0,0,1.34-.45,15.55,15.55,0,0,0,1.7-.91l.74-.46a.62.62,0,0,1,0,.18c0,.1-.07.17-.2.23-2.08,1.42-3.52,2.12-4.33,2.12A.53.53,0,0,1,303.48,301.47Z" style="fill:#2e28a0"/><path d="M308.08,300.16a.41.41,0,0,1-.17,0c-.05,0-.08,0-.08-.09a.22.22,0,0,1,.07-.17,8.91,8.91,0,0,0,2.07-1.72c-.69-.22-1-.52-1-.91a1.94,1.94,0,0,1,.79-1.31,2.25,2.25,0,0,1,1.47-.72c.3,0,.46.18.46.55a2.87,2.87,0,0,1-.85,1.81c.73.13,1.1.3,1.1.53a.76.76,0,0,1-.4.7,4.17,4.17,0,0,0-.93.87A1.88,1.88,0,0,0,310,301a.38.38,0,0,0,.09.25.48.48,0,0,0,.39.12,4.21,4.21,0,0,0,1.27-.45,15.55,15.55,0,0,0,1.7-.91l.73-.46a.36.36,0,0,1,0,.18c0,.1-.07.17-.21.23-2.07,1.42-3.51,2.12-4.32,2.12a.53.53,0,0,1-.6-.6,1.91,1.91,0,0,1,.33-1,3.77,3.77,0,0,1,.74-.87c.27-.23.51-.45.73-.66s.34-.34.34-.4-.1-.1-.29-.12a5.89,5.89,0,0,1-.75-.11A10.19,10.19,0,0,1,308.08,300.16Zm1.43-3.2c0,.31.34.53,1,.65a2.18,2.18,0,0,0,.6-1.28c0-.36-.12-.54-.35-.54a1.36,1.36,0,0,0-.8.4A1.09,1.09,0,0,0,309.51,297Z" style="fill:#2e28a0"/><path d="M316.62,301.06a17.56,17.56,0,0,0,2.36-1.24l.44-.28a.39.39,0,0,1,0,.18c0,.1-.06.17-.2.23a21.7,21.7,0,0,1-2.44,1.45,4.91,4.91,0,0,1-2.25.62c-.88,0-1.32-.31-1.32-.94a3.81,3.81,0,0,1,1.58-2.54,4.73,4.73,0,0,1,3.12-1.41c.43,0,.64.18.64.55,0,.21-.19.48-.57.8a2.8,2.8,0,0,1-1,.67c-.13,0-.2-.06-.2-.19a.17.17,0,0,1,.09-.13,3.32,3.32,0,0,0,.52-.43.78.78,0,0,0,.28-.49c0-.22-.1-.33-.29-.33q-.64,0-1.89,1.17c-.83.77-1.24,1.4-1.24,1.87s.29.81.87.81a3.57,3.57,0,0,0,1.27-.28Z" style="fill:#2e28a0"/><path d="M320.64,299.47q-1.38,0-1.38-.6c0-.47.54-1,1.63-1.69a5.87,5.87,0,0,1,2.95-1c.44,0,.66.13.66.41s-.11.32-.34.51a3.42,3.42,0,0,1-.67.43,1.59,1.59,0,0,1-.36.16.18.18,0,0,1-.19-.11c0-.11.05-.22.24-.34s.29-.24.29-.37-.17-.21-.52-.21a3.64,3.64,0,0,0-1.62.72c-.74.49-1.1.88-1.1,1.19s.27.34.8.34l.51,0c.24,0,.37,0,.37.09s-.38.35-1.14.83-1.14.88-1.14,1.22.25.57.75.57a4.53,4.53,0,0,0,1.69-.39,23.67,23.67,0,0,0,2.76-1.42l.43-.28a.36.36,0,0,1,0,.18c0,.1-.07.17-.21.23a24.11,24.11,0,0,1-2.67,1.58,5.75,5.75,0,0,1-2.61.75c-.77,0-1.16-.26-1.16-.77S319.31,300.31,320.64,299.47Z" style="fill:#2e28a0"/></svg>