<svg xmlns="http://www.w3.org/2000/svg" viewBox="0 0 400 400"><title>nosk-try</title><path d="M285,194.4c-4.9,2-5.6,12.8-2.4,38.9,1.1,9.1,2.7,18,3.4,19.7a13.72,13.72,0,0,0,5,5.2c4.1,2.4,4.4,2,1.6-2.3-2.6-3.9-2.7-11-.2-12,3.3-1.4,23.8-1.7,37.2-.6,22.6,2,34.6,2.5,33.5,1.3-.9-1-26.4-5-52.5-8.3-10.4-1.3-14-2.3-14-3.9,0-.5,2.2-3.4,4.9-6.2,20-21.7,23.1-25.4,23.1-27.5,0-3.6-3.7-2.9-7.3,1.4-12.3,14.4-23.6,23.8-25.9,21.5-.8-.8-.8-4.1,0-11.8,1.1-11.1.6-14.7-2.3-15.8a6,6,0,0,0-1.8-.5A18.28,18.28,0,0,0,285,194.4Z"/><path d="M252.55,197.5c-6.3,1.2-17,6.9-19.4,10.2a12.1,12.1,0,0,0,0,13.4c2.7,3.8,13.5,9.2,27.2,13.8,13.5,4.5,15.1,6.2,9.5,9.9-4.3,2.9-13.6,5.2-24.1,6.2-4,.4-7.5,1.1-7.8,1.6-.8,1.3,6,3.8,10.4,3.8,9.1,0,31-7.6,31.4-10.9.8-8.1-6.8-13.9-22.7-17.1-12-2.4-20.5-8.1-20.5-13.7,0-6.3,5.5-9.6,18.6-11.4,9-1.2,17-4.2,15.9-5.9C270.35,196.2,258.75,196.3,252.55,197.5Z"/><path d="M177.05,185.2a69.74,69.74,0,0,0-20.4,6.2c-15.1,7.7-22.2,21.6-19.2,37.7,2.1,11.4,9.4,20.5,22.1,27.2l6,3.2.9-2.3c.5-1.3,2.7-6.2,4.9-11l4-8.7-2.4-1.6a21.14,21.14,0,0,1-5-5.5c-5.5-8.3-.5-17.5,10.8-20,8-1.8,14.7.5,18.8,6.5,4.7,6.8,3.8,12.8-2.5,17.5-1.9,1.4-3.5,2.8-3.5,3.1,0,.9,7.3,18,8.7,20.4,1.2,2,1.4,1.9,7.8-1.5,19.1-10,26.6-28.2,19-46.3-3.3-8.1-16.2-18.8-26.6-22.2C195.25,186.1,182.25,184.7,177.05,185.2Z" style="fill:#009042"/><path d="M63.15,285c-1.4,1.5-2.6,3-2.6,3.5a9.31,9.31,0,0,1-.6,2.2c-.6,1.6,6.1,6.1,7.7,5.1.6-.3,2.1.2,3.6,1.1,3.3,2.2,4.3.9,4.3-5.6C75.55,283.2,68.65,279.6,63.15,285Z"/><path d="M94.05,289.9c-5.3,5.6-6.1,15.4-1.2,14.1,1.5-.4,2.7.1,3.9,1.6,1.5,2.1,1.8,2.1,3.5.6,1.3-1.2,2.3-1.4,3.6-.6,2.4,1.3,2.9.7,3.8-4.9.9-6.2-.4-9-5.9-12l-4.3-2.4Z"/><path d="M44.75,159.1c-5,9.7-8.7,33-7.7,47.8,1.2,18.5,4.7,31.2,11.3,41,4.5,6.6,18.4,23.6,18.9,23.1.2-.2-2.7-5.7-6.5-12.3-8.6-15-11-20.7-13.3-30.8-2.4-10.3-2.4-21,0-33.2,1.9-9.4,5.7-23.6,8-29.7,1.7-4.4.5-4.4-1.4,0-2,5-6.2,10.4-8,10.4-3,0-3-8.4.1-15.9C48.15,154.7,47.05,154.4,44.75,159.1Z"/><path d="M65.55,93.6c-3.8,1.4-10.6,9.6-11.5,13.9a17.17,17.17,0,0,1-3.2,5.6c-3.9,4.4-8.3,10.5-8.3,11.6,0,.5,1.8-.7,4-2.7,5.5-4.9,8.4-5.5,11.8-2.3,8.6,8,19.8,8.3,25.4.6,5.5-7.4,2.7-18.8-4.7-20.1-1.8-.3-2,.2-1.7,3.9.4,5.1-.9,7.8-5.1,10.3s-6.9,2.5-9.5-.3c-3.3-3.5-3-10,.6-13.7,9.8-9.8,30.3-4.2,37.9,10.4,2.4,4.5,2.1,14-.5,19.6-2.8,5.9-2.9,12.7-.1,15.6,3.8,4.1,12.5,30.7,15.3,46.9,2.1,12,2.1,23.4.1,24.1-4.8,1.9-11.7-3.8-20.1-16.4-10.3-15.2-19.9-27.7-24.1-31-5.7-4.5-6.1-4-1.2,1.7a155.34,155.34,0,0,1,11.3,16c3.9,6,12.9,20.1,20,31.2,11.6,18.1,13,20.7,13.4,25.4.5,6.4-1.8,18.2-6.1,31.6-1.8,5.4-3,9.9-2.7,9.9s2.2-2.5,4.2-5.6c7.5-11.3,12.7-29.4,14.8-51.1.5-6,1.4-15.5,2-21.3,1.1-12.4,2.4-17.4,5.1-20.1,1.5-1.5,2.3-1.7,3.7-.8,1.7,1.1,6.6,6.9,8.2,9.9,2,3.3,2.2-.5.6-8.7-3-15-19.1-45.6-33.4-63.2a65.08,65.08,0,0,1-7.1-11.5,35.34,35.34,0,0,0-29.6-20.2A33.34,33.34,0,0,0,65.55,93.6Z"/><path d="M62.66,138s0-4.26,4.6-2.63,10.48,5.87,16.52-1c7.21-8.18,8.78-9.16,9.48-13.12.56-3.22,2.18-9-4.57-16.68-5.36-6.11-9.85-6-11.73-5.08a1.63,1.63,0,0,0-1,1.42c.43,1.16-1.69,11.77-6.88,13.4s-5.81-4.9-4.62-11c1.22-6.29,11.08-7.18,14-6.73,5.1.78,15,5.66,16.83,11.5s6.21,11-5.8,29.81-5.31,28.32-5.31,30.89-3.56,8.06-9.07-4.1S62.46,140.26,62.66,138Z" style="fill:#ffb618"/><path d="M66.88,105c-.8,2.1,1.3,4.2,2.8,2.7,1.3-1.3.5-4.3-1.1-4.3C68,103.4,67.25,104.1,66.88,105Z"/><path d="M148.21,272.42a4.9,4.9,0,0,1,3.58,1.39,4.67,4.67,0,0,1,1.43,3.49,4.46,4.46,0,0,1-1.45,3.39,5.16,5.16,0,0,1-3.64,1.34,4.92,4.92,0,0,1-3.55-1.36,4.85,4.85,0,0,1,0-6.88A5,5,0,0,1,148.21,272.42Zm-.1,1.68a3,3,0,0,0-2.21.88,3.11,3.11,0,0,0-.86,2.25,2.92,2.92,0,0,0,.89,2.2,3.37,3.37,0,0,0,4.51,0,3,3,0,0,0,.88-2.22,3,3,0,0,0-.91-2.22A3.18,3.18,0,0,0,148.11,274.1Z" style="fill:#2e28a0"/><path d="M155.16,286.68V272.44h3.27a5.64,5.64,0,0,1,3.91,1.25,4.45,4.45,0,0,1,1.4,3.49,4.81,4.81,0,0,1-1.32,3.49,4.45,4.45,0,0,1-3.35,1.36,5.82,5.82,0,0,1-2-.4v5.05Zm3.23-12.5h-1.32V280a3.8,3.8,0,0,0,1.8.44,2.77,2.77,0,0,0,2.15-.91,3.37,3.37,0,0,0,.83-2.35,3.33,3.33,0,0,0-.39-1.63,2.49,2.49,0,0,0-1.08-1A4.9,4.9,0,0,0,158.39,274.18Z" style="fill:#2e28a0"/><path d="M173.83,277.32h-6.64a3.07,3.07,0,0,0,.91,2.15,3,3,0,0,0,2.16.8,5.58,5.58,0,0,0,3.4-1.15V281a6.36,6.36,0,0,1-1.71.82,7.25,7.25,0,0,1-2,.24,4.44,4.44,0,0,1-2.52-.64,4.76,4.76,0,0,1-1.55-1.74,5.39,5.39,0,0,1-.57-2.53,5,5,0,0,1,1.22-3.5,4.06,4.06,0,0,1,3.16-1.35,3.75,3.75,0,0,1,3,1.31,5.29,5.29,0,0,1,1.12,3.52Zm-6.6-1.12H172a2.6,2.6,0,0,0-.67-1.72,2.11,2.11,0,0,0-1.6-.61,2.27,2.27,0,0,0-1.64.61A3,3,0,0,0,167.23,276.2Z" style="fill:#2e28a0"/><path d="M177.71,272.44v1.2a3.74,3.74,0,0,1,2.84-1.39,3.06,3.06,0,0,1,1.64.46,3,3,0,0,1,1.16,1.25,6.06,6.06,0,0,1,.39,2.52v5.39h-1.86V276.5a3.61,3.61,0,0,0-.45-2.07,1.68,1.68,0,0,0-1.47-.62,2.7,2.7,0,0,0-2.25,1.32v6.74h-1.9v-9.43Z" style="fill:#2e28a0"/><path d="M187.31,268.47a1.06,1.06,0,0,1,.79.32,1.08,1.08,0,0,1,0,1.55,1.07,1.07,0,0,1-.79.33,1,1,0,0,1-.76-.33,1.06,1.06,0,0,1,0-1.54A1,1,0,0,1,187.31,268.47Zm-.92,4h1.86v9.43h-1.86Z" style="fill:#2e28a0"/><path d="M192.82,272.44v1.2a3.73,3.73,0,0,1,2.84-1.39,3.11,3.11,0,0,1,1.64.46,3,3,0,0,1,1.15,1.25,6,6,0,0,1,.4,2.52v5.39H197V276.5a3.7,3.7,0,0,0-.44-2.07,1.71,1.71,0,0,0-1.48-.62,2.68,2.68,0,0,0-2.24,1.32v6.74h-1.91v-9.43Z" style="fill:#2e28a0"/><path d="M201,275.7a2.88,2.88,0,0,1,1.1-2.39,4.73,4.73,0,0,1,3-.87H209v1.45h-1.91a4.08,4.08,0,0,1,.77,1A2.52,2.52,0,0,1,208,276a2.79,2.79,0,0,1-.42,1.45,3,3,0,0,1-1.08,1.1,6.65,6.65,0,0,1-2.17.6c-.7.1-1.05.35-1.05.73a.62.62,0,0,0,.39.54,6.25,6.25,0,0,0,1.43.43,16.54,16.54,0,0,1,2.23.6,3,3,0,0,1,.9.61,2.34,2.34,0,0,1,.68,1.71,2.46,2.46,0,0,1-1.2,2.14,6.8,6.8,0,0,1-6.42,0,2.46,2.46,0,0,1-1.2-2.15c0-1.28.79-2.11,2.37-2.47-.63-.41-.95-.81-.95-1.21a1.11,1.11,0,0,1,.41-.82,2.59,2.59,0,0,1,1.09-.54A3.09,3.09,0,0,1,201,275.7Zm3.06,6.61a2.69,2.69,0,0,0-1.54.4,1.2,1.2,0,0,0-.6,1c0,1,.88,1.45,2.63,1.45a4.21,4.21,0,0,0,1.92-.36,1.13,1.13,0,0,0,.68-1c0-.44-.29-.8-.86-1.07A5.13,5.13,0,0,0,204,282.31Zm.44-8.25a1.81,1.81,0,0,0-1.29.51,1.66,1.66,0,0,0-.53,1.23,1.53,1.53,0,0,0,.52,1.2,1.89,1.89,0,0,0,1.33.48,1.84,1.84,0,0,0,1.31-.49,1.55,1.55,0,0,0,.53-1.21,1.63,1.63,0,0,0-.53-1.23A1.89,1.89,0,0,0,204.47,274.06Z" style="fill:#2e28a0"/><path d="M224,275v6.85H222.1v-5.25a4.11,4.11,0,0,0-.42-2.19,1.65,1.65,0,0,0-1.47-.62,2.21,2.21,0,0,0-1.07.27A4.68,4.68,0,0,0,218,275v6.85h-1.87v-9.43H218v1.24a4.07,4.07,0,0,1,2.79-1.43,3.07,3.07,0,0,1,2.78,1.7,4.24,4.24,0,0,1,3.13-1.72,2.89,2.89,0,0,1,2.26,1,4.53,4.53,0,0,1,.88,3.06v5.57H228v-5.59a2.9,2.9,0,0,0-.48-1.8,1.66,1.66,0,0,0-1.39-.63A2.86,2.86,0,0,0,224,275Z" style="fill:#2e28a0"/><path d="M233.4,268.47a1.06,1.06,0,0,1,.79.32,1.08,1.08,0,0,1,0,1.55,1.07,1.07,0,0,1-.79.33,1.1,1.1,0,0,1,0-2.2Zm-.92,4h1.87v9.43h-1.87Z" style="fill:#2e28a0"/><path d="M238.91,272.44v1.2a3.73,3.73,0,0,1,2.84-1.39,3.08,3.08,0,0,1,1.64.46,3,3,0,0,1,1.15,1.25,5.87,5.87,0,0,1,.4,2.52v5.39h-1.87V276.5a3.7,3.7,0,0,0-.44-2.07,1.7,1.7,0,0,0-1.48-.62,2.68,2.68,0,0,0-2.24,1.32v6.74H237v-9.43Z" style="fill:#2e28a0"/><path d="M253.84,267.55h1.87v14.32h-4a4.36,4.36,0,0,1-3.33-1.32,5,5,0,0,1-1.25-3.55,4.69,4.69,0,0,1,1.31-3.42,4.44,4.44,0,0,1,3.34-1.35,6,6,0,0,1,2.05.4Zm0,12.72v-6a3.93,3.93,0,0,0-1.77-.44,2.87,2.87,0,0,0-2.22.91,3.54,3.54,0,0,0-.82,2.47,3.21,3.21,0,0,0,.72,2.24,2.15,2.15,0,0,0,.91.64,6.16,6.16,0,0,0,1.73.16Z" style="fill:#2e28a0"/><path d="M257.79,281.19v-2a8.31,8.31,0,0,0,1.61.9,3.72,3.72,0,0,0,1.39.34,1.73,1.73,0,0,0,1-.28.82.82,0,0,0,.42-.69.93.93,0,0,0-.27-.68,6.69,6.69,0,0,0-1.17-.79,8.42,8.42,0,0,1-2.36-1.71,2.45,2.45,0,0,1-.56-1.56,2.19,2.19,0,0,1,.84-1.77,3.35,3.35,0,0,1,2.18-.69,6,6,0,0,1,2.84.78v1.85a5.69,5.69,0,0,0-2.72-1,1.52,1.52,0,0,0-.87.23.72.72,0,0,0-.33.61.89.89,0,0,0,.3.63,4.93,4.93,0,0,0,1.06.72l.66.38c1.58.89,2.36,1.87,2.36,2.95a2.35,2.35,0,0,1-.9,1.9,3.57,3.57,0,0,1-2.34.74,5.58,5.58,0,0,1-1.49-.18A9.18,9.18,0,0,1,257.79,281.19Z" style="fill:#2e28a0"/><path d="M178.38,290.93l3.5-3.44v1.95h3v1.68h-3v4.62c0,1.07.45,1.61,1.35,1.61a4.2,4.2,0,0,0,2.12-.66v1.74a4.75,4.75,0,0,1-2.35.6,3.11,3.11,0,0,1-2.13-.74,1.93,1.93,0,0,1-.44-.51,2.43,2.43,0,0,1-.29-.74,8.11,8.11,0,0,1-.12-1.74v-4.18h-1.64Z" style="fill:#2e28a0"/><path d="M186.65,284.55h1.87v6.13a3.62,3.62,0,0,1,2.9-1.43,3.14,3.14,0,0,1,1.69.47,2.93,2.93,0,0,1,1.12,1.31,6.46,6.46,0,0,1,.36,2.47v5.37h-1.87V293a2.64,2.64,0,0,0-.5-1.67,1.64,1.64,0,0,0-1.34-.63,2.18,2.18,0,0,0-1.16.32,5.32,5.32,0,0,0-1.2,1.05v6.76h-1.87Z" style="fill:#2e28a0"/><path d="M199.19,289.44v2.16l.11-.16q1.35-2.19,2.7-2.19a3.36,3.36,0,0,1,2.21,1.07l-1,1.64a2.74,2.74,0,0,0-1.8-.92,1.94,1.94,0,0,0-1.57.86,3.24,3.24,0,0,0-.66,2v4.93h-1.87v-9.43Z" style="fill:#2e28a0"/><path d="M209.5,289.42a4.92,4.92,0,0,1,3.58,1.39,4.66,4.66,0,0,1,1.42,3.49,4.45,4.45,0,0,1-1.44,3.39,5.18,5.18,0,0,1-3.64,1.34,4.92,4.92,0,0,1-3.55-1.36,4.84,4.84,0,0,1,0-6.88A5.06,5.06,0,0,1,209.5,289.42Zm-.1,1.68a2.94,2.94,0,0,0-2.21.88,3.11,3.11,0,0,0-.86,2.25,2.92,2.92,0,0,0,.88,2.2,3.38,3.38,0,0,0,4.52,0,3.21,3.21,0,0,0,0-4.44A3.15,3.15,0,0,0,209.4,291.1Z" style="fill:#2e28a0"/><path d="M222.58,298.87v-1.21a4.43,4.43,0,0,1-1.36,1,3.52,3.52,0,0,1-1.52.36,3.19,3.19,0,0,1-1.65-.44,2.86,2.86,0,0,1-1.13-1.21,6,6,0,0,1-.39-2.54v-5.4h1.87v5.37a3.78,3.78,0,0,0,.42,2.08,1.74,1.74,0,0,0,1.5.59,2.73,2.73,0,0,0,2.26-1.31v-6.73h1.87v9.43Z" style="fill:#2e28a0"/><path d="M226.59,292.7a2.91,2.91,0,0,1,1.1-2.39,4.75,4.75,0,0,1,3-.87h3.89v1.45h-1.91a3.85,3.85,0,0,1,.77,1,2.53,2.53,0,0,1,.22,1.05,2.79,2.79,0,0,1-.42,1.45,3.11,3.11,0,0,1-1.09,1.1,6.65,6.65,0,0,1-2.16.6c-.71.1-1.06.35-1.06.73a.62.62,0,0,0,.39.54,6.42,6.42,0,0,0,1.43.43,16.54,16.54,0,0,1,2.23.6,2.76,2.76,0,0,1,.9.61,2.34,2.34,0,0,1,.68,1.71,2.46,2.46,0,0,1-1.2,2.14,6.78,6.78,0,0,1-6.41,0,2.45,2.45,0,0,1-1.21-2.15c0-1.28.79-2.11,2.37-2.47-.63-.41-.94-.81-.94-1.21a1.09,1.09,0,0,1,.4-.82,2.59,2.59,0,0,1,1.09-.54A3.09,3.09,0,0,1,226.59,292.7Zm3.07,6.61a2.72,2.72,0,0,0-1.55.4,1.2,1.2,0,0,0-.6,1c0,1,.88,1.45,2.63,1.45a4.15,4.15,0,0,0,1.92-.36,1.12,1.12,0,0,0,.68-1c0-.44-.28-.8-.86-1.07A5,5,0,0,0,229.66,299.31Zm.44-8.25a1.78,1.78,0,0,0-1.29.51,1.63,1.63,0,0,0-.54,1.23,1.56,1.56,0,0,0,.52,1.2,2.05,2.05,0,0,0,2.65,0,1.57,1.57,0,0,0,.52-1.21,1.59,1.59,0,0,0-.53-1.23A1.87,1.87,0,0,0,230.1,291.06Z" style="fill:#2e28a0"/><path d="M236,284.55h1.87v6.13a3.62,3.62,0,0,1,2.9-1.43,3.17,3.17,0,0,1,1.7.47,3,3,0,0,1,1.11,1.31,6.46,6.46,0,0,1,.36,2.47v5.37h-1.87V293a2.58,2.58,0,0,0-.5-1.67,1.64,1.64,0,0,0-1.34-.63,2.18,2.18,0,0,0-1.16.32,5.32,5.32,0,0,0-1.2,1.05v6.76H236Z" style="fill:#2e28a0"/><path d="M256.88,289.42a4.9,4.9,0,0,1,3.58,1.39,4.66,4.66,0,0,1,1.42,3.49,4.45,4.45,0,0,1-1.44,3.39A5.16,5.16,0,0,1,256.8,299a4.92,4.92,0,0,1-3.55-1.36,4.85,4.85,0,0,1,0-6.88A5,5,0,0,1,256.88,289.42Zm-.1,1.68a3,3,0,0,0-2.21.88,3.11,3.11,0,0,0-.86,2.25,3,3,0,0,0,.88,2.2,3.1,3.1,0,0,0,2.27.86,3,3,0,0,0,2.25-.87,3,3,0,0,0,.88-2.22,3,3,0,0,0-.91-2.22A3.18,3.18,0,0,0,256.78,291.1Z" style="fill:#2e28a0"/><path d="M263.83,303.68V289.44h3.27a5.64,5.64,0,0,1,3.91,1.25,4.45,4.45,0,0,1,1.4,3.49,4.81,4.81,0,0,1-1.32,3.49,4.45,4.45,0,0,1-3.35,1.36,5.82,5.82,0,0,1-2-.4v5.05Zm3.23-12.5h-1.32V297a3.83,3.83,0,0,0,1.8.44,2.77,2.77,0,0,0,2.15-.91,3.37,3.37,0,0,0,.83-2.35,3.33,3.33,0,0,0-.39-1.63,2.49,2.49,0,0,0-1.08-1A4.9,4.9,0,0,0,267.06,291.18Z" style="fill:#2e28a0"/><path d="M282.5,294.32h-6.64a3.07,3.07,0,0,0,.91,2.15,3,3,0,0,0,2.16.8,5.58,5.58,0,0,0,3.4-1.15V298a6.45,6.45,0,0,1-1.7.82,7.38,7.38,0,0,1-2,.24,4.44,4.44,0,0,1-2.52-.64,4.65,4.65,0,0,1-1.54-1.74,5.28,5.28,0,0,1-.58-2.53,5,5,0,0,1,1.22-3.5,4.06,4.06,0,0,1,3.16-1.35,3.75,3.75,0,0,1,3,1.31,5.29,5.29,0,0,1,1.12,3.52Zm-6.6-1.12h4.75a2.6,2.6,0,0,0-.67-1.72,2.11,2.11,0,0,0-1.6-.61,2.27,2.27,0,0,0-1.64.61A3,3,0,0,0,275.9,293.2Z" style="fill:#2e28a0"/><path d="M286.38,289.44v1.2a3.74,3.74,0,0,1,2.84-1.39,3.06,3.06,0,0,1,1.64.46A3,3,0,0,1,292,291a6.06,6.06,0,0,1,.39,2.52v5.39h-1.87V293.5a3.62,3.62,0,0,0-.44-2.07,1.68,1.68,0,0,0-1.47-.62,2.7,2.7,0,0,0-2.25,1.32v6.74h-1.91v-9.43Z" style="fill:#2e28a0"/><path d="M300.39,298.19v-2a8.61,8.61,0,0,0,1.61.9,3.76,3.76,0,0,0,1.39.34,1.76,1.76,0,0,0,1-.28.82.82,0,0,0,.42-.69.93.93,0,0,0-.27-.68,6.9,6.9,0,0,0-1.18-.79,8.42,8.42,0,0,1-2.36-1.71,2.51,2.51,0,0,1-.56-1.56,2.17,2.17,0,0,1,.85-1.77,3.32,3.32,0,0,1,2.17-.69,6,6,0,0,1,2.85.78v1.85a5.73,5.73,0,0,0-2.72-1,1.55,1.55,0,0,0-.88.23.72.72,0,0,0-.33.61.89.89,0,0,0,.3.63,5.21,5.21,0,0,0,1.06.72l.67.38c1.57.89,2.36,1.87,2.36,2.95a2.36,2.36,0,0,1-.91,1.9,3.54,3.54,0,0,1-2.33.74,5.71,5.71,0,0,1-1.5-.18A9.18,9.18,0,0,1,300.39,298.19Z" style="fill:#2e28a0"/><path d="M313.44,289.42a4.9,4.9,0,0,1,3.58,1.39,4.67,4.67,0,0,1,1.43,3.49,4.46,4.46,0,0,1-1.45,3.39,5.16,5.16,0,0,1-3.64,1.34,4.94,4.94,0,0,1-3.55-1.36,4.85,4.85,0,0,1,0-6.88A5,5,0,0,1,313.44,289.42Zm-.1,1.68a3,3,0,0,0-2.21.88,3.11,3.11,0,0,0-.86,2.25,2.92,2.92,0,0,0,.89,2.2,3.37,3.37,0,0,0,4.51,0,3,3,0,0,0,.88-2.22,3,3,0,0,0-.91-2.22A3.18,3.18,0,0,0,313.34,291.1Z" style="fill:#2e28a0"/><path d="M326.53,298.87v-1.21a4.43,4.43,0,0,1-1.36,1,3.56,3.56,0,0,1-1.52.36,3.14,3.14,0,0,1-1.65-.44,3,3,0,0,1-1.14-1.21,6.21,6.21,0,0,1-.38-2.54v-5.4h1.86v5.37a3.77,3.77,0,0,0,.43,2.08,1.72,1.72,0,0,0,1.49.59,2.75,2.75,0,0,0,2.27-1.31v-6.73h1.86v9.43Z" style="fill:#2e28a0"/><path d="M333,289.44v2.16l.1-.16c.9-1.46,1.8-2.19,2.71-2.19a3.34,3.34,0,0,1,2.2,1.07l-1,1.64a2.74,2.74,0,0,0-1.81-.92,1.91,1.91,0,0,0-1.56.86,3.24,3.24,0,0,0-.66,2v4.93h-1.88v-9.43Z" style="fill:#2e28a0"/><path d="M345.88,296.67v1.84a7.76,7.76,0,0,1-2.74.52,4.52,4.52,0,0,1-4.85-4.83,5,5,0,0,1,1.28-3.58,4.41,4.41,0,0,1,3.37-1.37,5.78,5.78,0,0,1,1.31.14,8.93,8.93,0,0,1,1.43.52v2a5,5,0,0,0-2.63-.9,2.68,2.68,0,0,0-2.07.88,3.23,3.23,0,0,0-.81,2.26,3,3,0,0,0,.88,2.3,3.22,3.22,0,0,0,2.36.85A6.25,6.25,0,0,0,345.88,296.67Z" style="fill:#2e28a0"/><path d="M356,294.32h-6.63a3.07,3.07,0,0,0,.91,2.15,3,3,0,0,0,2.16.8,5.58,5.58,0,0,0,3.4-1.15V298a6.36,6.36,0,0,1-1.71.82,7.25,7.25,0,0,1-2,.24,4.44,4.44,0,0,1-2.52-.64,4.67,4.67,0,0,1-1.55-1.74,5.4,5.4,0,0,1-.58-2.53,5,5,0,0,1,1.23-3.5,4,4,0,0,1,3.16-1.35,3.77,3.77,0,0,1,3,1.31,5.28,5.28,0,0,1,1.11,3.52Zm-6.59-1.12h4.75a2.6,2.6,0,0,0-.67-1.72,2.11,2.11,0,0,0-1.6-.61,2.25,2.25,0,0,0-1.64.61A3,3,0,0,0,349.45,293.2Z" style="fill:#2e28a0"/></svg>