<?xml version="1.0" standalone="no"?>
<!DOCTYPE svg PUBLIC "-//W3C//DTD SVG 20010904//EN"
 "http://www.w3.org/TR/2001/REC-SVG-20010904/DTD/svg10.dtd">
<svg version="1.0" xmlns="http://www.w3.org/2000/svg"
 width="2480.000000pt" height="3508.000000pt" viewBox="0 0 2480.000000 3508.000000"
 preserveAspectRatio="xMidYMid meet">

<g transform="translate(0.000000,3508.000000) scale(0.100000,-0.100000)"
fill="#000000" stroke="none">
<path d="M5138 34050 c-27 -4 -76 -18 -110 -29 -35 -11 -87 -26 -116 -32 -29
-6 -65 -21 -80 -34 -15 -12 -43 -29 -62 -38 -41 -17 -174 -147 -197 -191 -9
-17 -21 -34 -27 -38 -10 -7 -36 -55 -90 -165 -14 -29 -30 -53 -35 -53 -5 0
-17 -22 -26 -49 -9 -27 -24 -56 -35 -66 -10 -9 -22 -30 -25 -46 -4 -16 -17
-42 -29 -57 -13 -15 -26 -40 -30 -57 -4 -16 -18 -46 -31 -65 -13 -19 -26 -55
-30 -80 -4 -25 -18 -67 -30 -95 -15 -33 -30 -103 -44 -202 -25 -173 -43 -238
-77 -271 -13 -13 -24 -27 -24 -32 0 -5 -11 -22 -24 -37 -67 -76 -93 -110 -104
-135 -6 -16 -16 -28 -21 -28 -6 0 -20 -19 -31 -42 -12 -24 -36 -68 -53 -99
-18 -32 -42 -75 -54 -96 -12 -22 -28 -45 -36 -51 -8 -7 -22 -31 -33 -54 -10
-24 -28 -56 -41 -71 -13 -16 -23 -34 -23 -41 0 -8 -10 -25 -21 -40 -12 -15
-27 -47 -35 -72 -7 -25 -22 -56 -33 -71 -11 -14 -23 -41 -27 -62 -3 -20 -16
-54 -29 -76 -39 -69 -44 -146 -10 -159 22 -8 66 34 90 86 12 27 32 59 44 71
46 46 201 236 201 244 0 6 15 24 33 42 17 17 39 38 47 47 42 42 116 104 126
104 5 0 19 8 30 19 36 33 62 41 136 41 l73 0 37 -43 c20 -23 55 -64 77 -92
146 -179 233 -270 281 -295 20 -10 42 -26 50 -35 8 -9 31 -25 52 -36 22 -11
42 -27 45 -35 3 -8 27 -26 52 -39 26 -13 53 -30 60 -39 7 -8 29 -20 49 -26 20
-6 64 -24 97 -40 119 -58 397 -63 495 -10 19 10 61 31 93 46 31 14 57 30 57
34 0 5 17 19 38 31 36 23 202 184 202 198 0 3 13 21 29 38 16 18 32 47 36 65
4 18 18 47 30 64 13 17 27 48 30 70 4 21 18 55 30 74 13 19 26 55 30 80 4 25
15 63 25 85 10 22 20 54 24 70 12 61 34 342 30 385 -22 238 -26 268 -48 315
-13 28 -27 69 -31 92 -3 22 -17 56 -31 74 -13 18 -26 47 -30 65 -3 18 -17 42
-30 55 -13 12 -24 27 -24 32 0 10 -106 136 -176 210 -39 42 -56 52 -127 72
-87 26 -84 26 -139 -24 -24 -21 -28 -32 -28 -80 0 -34 8 -73 20 -100 26 -57
41 -191 41 -371 0 -183 -11 -271 -45 -334 -14 -27 -26 -57 -26 -67 0 -10 -28
-47 -62 -82 -35 -35 -71 -73 -80 -83 -10 -11 -37 -36 -60 -56 -24 -20 -64 -55
-89 -77 -25 -23 -50 -41 -54 -41 -5 0 -29 -14 -55 -30 -58 -37 -140 -55 -215
-45 -51 6 -64 13 -127 68 -39 34 -79 77 -89 96 -10 18 -27 43 -37 55 -11 11
-23 36 -27 55 -4 18 -16 48 -26 66 -11 18 -24 69 -30 116 -5 46 -16 125 -24
174 -19 115 -19 194 0 292 9 43 20 107 25 142 5 36 18 76 28 90 10 14 25 44
32 66 7 22 23 53 36 68 13 16 24 33 24 39 0 6 16 29 36 52 20 22 49 57 65 76
17 19 35 40 41 45 5 6 24 25 42 42 18 18 52 39 76 48 25 9 54 24 65 35 11 10
42 24 68 31 27 6 62 23 78 36 19 17 50 27 96 34 37 6 103 21 146 35 100 31
227 33 315 5 33 -11 97 -25 142 -32 55 -8 92 -19 118 -36 20 -14 57 -32 83
-39 25 -8 58 -23 72 -34 14 -11 45 -27 69 -36 23 -8 54 -25 68 -38 14 -13 44
-33 68 -45 23 -12 42 -26 42 -31 0 -5 15 -17 33 -26 42 -21 73 -51 267 -260
90 -96 117 -133 149 -200 11 -23 24 -45 29 -48 12 -7 77 -138 88 -176 4 -14
17 -37 29 -52 12 -15 26 -44 29 -65 4 -21 18 -56 31 -78 12 -22 26 -60 30 -85
4 -25 17 -65 30 -90 12 -25 26 -70 30 -100 3 -30 15 -84 26 -119 53 -174 53
-774 0 -946 -10 -33 -22 -86 -25 -118 -4 -32 -18 -81 -31 -110 -13 -29 -26
-72 -30 -97 -4 -25 -18 -63 -30 -85 -13 -22 -26 -60 -30 -85 -4 -25 -17 -63
-30 -85 -14 -25 -27 -73 -35 -130 -6 -49 -21 -130 -33 -180 -18 -77 -21 -124
-21 -320 l-1 -230 39 -112 c21 -62 42 -113 46 -113 15 0 149 -169 156 -196 4
-16 15 -41 25 -55 10 -15 25 -53 33 -85 7 -33 23 -77 34 -99 11 -22 23 -60 27
-85 4 -25 14 -57 22 -73 7 -15 22 -74 32 -131 11 -57 26 -114 34 -127 9 -13
21 -55 27 -93 6 -37 20 -86 30 -107 11 -21 24 -70 30 -109 6 -40 19 -93 30
-118 11 -26 24 -77 30 -113 5 -37 19 -86 29 -110 11 -24 25 -80 31 -124 7 -44
21 -101 31 -127 10 -26 28 -106 38 -176 11 -70 24 -140 30 -154 5 -14 14 -59
20 -100 6 -40 19 -94 30 -118 10 -25 24 -85 31 -134 6 -49 18 -105 26 -125 8
-19 21 -78 30 -130 8 -53 23 -127 34 -166 10 -38 23 -108 29 -155 5 -47 17
-105 26 -129 8 -24 22 -103 30 -175 9 -72 24 -162 35 -201 10 -38 26 -155 34
-258 9 -103 21 -208 26 -233 6 -25 17 -125 25 -222 8 -98 21 -215 30 -262 51
-292 58 -1301 10 -1430 -48 -129 -51 -135 -78 -144 -41 -15 -253 17 -281 42
-11 11 -34 27 -51 35 -40 21 -191 159 -243 222 -23 28 -54 64 -69 81 -16 18
-38 47 -51 65 -63 95 -102 158 -102 166 0 6 -9 18 -21 29 -12 10 -28 36 -36
57 -8 20 -19 37 -24 37 -5 0 -17 17 -27 38 -9 20 -29 55 -44 76 -16 21 -28 44
-28 51 0 7 -9 20 -20 30 -11 10 -27 41 -35 68 -8 28 -21 57 -29 66 -7 9 -19
34 -26 56 -7 22 -21 49 -31 60 -10 12 -24 36 -30 55 -7 19 -22 46 -34 60 -13
14 -26 36 -30 50 -4 14 -16 36 -26 49 -11 13 -24 42 -30 65 -6 22 -19 50 -30
62 -10 11 -25 41 -33 66 -7 26 -23 59 -35 74 -11 15 -21 34 -21 44 0 9 -13 42
-30 73 -16 31 -30 63 -30 70 0 8 -9 26 -21 40 -11 15 -27 48 -36 74 -9 27 -27
61 -40 76 -12 16 -23 34 -23 40 0 7 -11 28 -24 47 -12 19 -29 52 -36 73 -6 21
-18 41 -25 44 -8 2 -21 27 -30 53 -9 27 -25 60 -35 73 -11 13 -23 42 -28 63
-5 22 -21 57 -35 78 -15 21 -27 44 -27 51 0 6 -11 22 -24 35 -14 12 -28 35
-31 50 -3 15 -17 42 -30 60 -13 18 -27 45 -30 60 -3 15 -17 38 -30 50 -13 12
-27 35 -30 51 -4 15 -13 33 -21 40 -9 7 -25 31 -36 53 -11 23 -29 51 -38 63
-10 13 -21 39 -24 58 -4 20 -18 52 -32 72 -13 20 -24 42 -24 49 0 7 -11 25
-24 41 -13 15 -33 48 -45 73 -12 25 -34 65 -49 90 -15 25 -36 61 -47 79 -11
18 -29 45 -40 60 -31 39 -95 148 -95 160 0 10 -15 28 -98 120 -18 20 -44 50
-57 66 -14 17 -40 47 -58 67 -17 21 -44 53 -59 70 -82 100 -119 140 -169 187
-31 28 -62 51 -68 51 -6 0 -18 11 -27 25 -20 30 -64 35 -64 6 0 -19 42 -78 88
-122 15 -14 35 -38 44 -55 10 -16 35 -56 57 -89 39 -58 53 -82 65 -115 3 -8
24 -44 46 -80 22 -36 49 -83 60 -106 10 -22 28 -49 40 -59 11 -10 20 -26 20
-35 0 -10 12 -35 26 -56 15 -21 31 -52 37 -69 6 -16 21 -43 34 -58 12 -16 23
-34 23 -40 0 -7 14 -32 30 -56 17 -24 30 -52 30 -61 0 -9 14 -42 30 -73 17
-31 30 -63 30 -71 0 -8 11 -27 24 -43 13 -15 28 -45 34 -66 6 -20 22 -51 36
-68 14 -17 26 -36 26 -43 0 -8 10 -25 21 -40 12 -15 28 -48 35 -74 8 -25 23
-55 33 -66 11 -12 24 -40 30 -62 6 -23 20 -52 30 -66 11 -13 24 -44 31 -68 7
-24 20 -55 30 -68 10 -12 22 -37 25 -55 4 -18 18 -46 30 -63 13 -17 27 -47 30
-67 4 -19 15 -43 26 -53 10 -9 26 -39 35 -68 9 -28 24 -60 34 -71 10 -11 23
-37 29 -57 7 -20 19 -42 26 -48 8 -7 20 -31 26 -54 5 -22 19 -53 30 -68 11
-16 24 -51 29 -79 5 -28 21 -64 34 -79 13 -16 26 -44 30 -63 3 -19 15 -42 26
-52 11 -10 26 -41 35 -70 8 -29 22 -58 30 -65 8 -7 20 -30 25 -51 6 -22 22
-55 35 -75 13 -19 26 -48 30 -63 3 -16 15 -37 26 -47 10 -9 24 -36 30 -58 6
-22 20 -53 30 -68 11 -14 24 -50 29 -79 6 -29 19 -62 29 -73 10 -12 23 -36 29
-54 6 -18 20 -45 30 -60 10 -15 26 -48 36 -74 10 -27 22 -48 26 -48 5 0 16
-23 25 -52 8 -28 21 -58 29 -67 8 -9 24 -41 36 -73 11 -31 27 -62 35 -68 8 -7
15 -18 15 -25 0 -7 13 -37 29 -67 15 -30 31 -72 35 -93 4 -22 18 -51 31 -66
12 -15 26 -45 30 -65 3 -21 18 -51 31 -67 13 -16 24 -34 24 -41 0 -7 12 -31
26 -52 15 -21 31 -55 37 -74 5 -19 19 -47 32 -62 12 -14 26 -44 30 -64 3 -21
18 -51 31 -67 13 -16 24 -37 24 -46 0 -10 12 -40 26 -67 15 -27 33 -70 40 -95
8 -26 21 -52 29 -59 8 -7 20 -31 26 -54 6 -22 19 -50 29 -61 10 -11 23 -39 29
-62 7 -23 18 -49 26 -56 8 -8 25 -40 39 -70 13 -30 29 -57 35 -61 6 -4 15 -26
22 -49 6 -23 19 -51 29 -62 10 -11 24 -42 30 -69 6 -27 22 -68 35 -91 14 -23
25 -49 25 -58 0 -8 12 -29 26 -46 14 -17 30 -47 35 -66 6 -20 21 -52 35 -72
13 -20 24 -43 24 -52 0 -10 11 -32 24 -50 14 -19 28 -48 32 -65 3 -17 17 -49
30 -71 12 -22 28 -70 33 -106 6 -37 18 -85 26 -108 28 -79 38 -289 32 -646 -5
-273 -10 -363 -26 -455 -11 -63 -25 -173 -31 -245 -6 -71 -20 -166 -30 -210
-10 -44 -23 -127 -30 -185 -6 -58 -19 -134 -30 -170 -10 -36 -24 -108 -30
-160 -6 -52 -22 -133 -35 -180 -13 -47 -27 -112 -30 -145 -4 -33 -15 -85 -26
-115 -10 -30 -23 -88 -29 -129 -6 -41 -17 -93 -24 -116 -8 -22 -22 -94 -31
-160 -9 -66 -27 -147 -39 -180 -13 -33 -27 -85 -30 -115 -4 -30 -16 -74 -26
-97 -10 -23 -24 -77 -30 -119 -7 -42 -20 -93 -31 -113 -10 -21 -24 -64 -30
-97 -6 -32 -19 -68 -30 -80 -28 -30 -37 -115 -14 -134 16 -13 19 -13 29 4 6
10 26 36 44 58 17 22 32 45 32 52 0 13 55 104 89 148 12 15 28 46 36 69 9 23
20 48 25 54 5 6 16 31 25 54 8 23 23 54 34 69 10 15 24 46 30 68 6 23 18 47
26 54 7 6 21 35 31 63 9 29 25 61 34 72 10 11 21 38 25 60 4 22 18 58 30 80
13 22 26 58 30 80 4 22 16 56 27 75 20 34 49 131 88 297 11 45 29 99 39 120
11 21 23 61 27 88 3 28 15 67 25 87 10 20 25 76 33 125 8 48 23 108 34 133 11
25 23 72 27 105 4 32 15 80 25 106 11 26 24 87 31 136 6 48 20 111 31 138 14
34 23 94 30 185 5 75 18 162 28 195 11 33 24 110 30 170 7 61 20 144 30 185
10 41 26 140 34 220 8 80 22 174 30 210 8 36 20 128 26 205 6 77 19 187 30
245 10 58 24 186 30 285 6 99 18 223 25 275 14 95 28 288 40 550 4 74 13 203
20 287 15 162 20 286 35 918 7 261 15 431 25 490 8 50 22 176 30 280 9 105 24
226 34 270 11 44 24 128 30 188 7 59 18 125 26 148 8 22 22 81 30 131 9 50 23
104 31 119 8 16 21 60 29 99 8 40 22 81 30 93 9 12 20 39 26 60 5 21 19 47 29
57 10 10 26 32 34 48 40 78 120 104 173 58 109 -96 174 -163 183 -191 6 -18
22 -43 35 -55 14 -13 25 -29 25 -37 0 -7 9 -22 19 -32 11 -11 28 -35 37 -53 9
-18 27 -46 40 -61 13 -16 24 -34 24 -40 0 -7 14 -30 30 -51 17 -22 30 -44 30
-49 0 -5 11 -22 25 -39 14 -16 28 -42 31 -56 4 -15 20 -51 35 -81 16 -30 29
-62 29 -71 0 -10 9 -28 19 -42 11 -14 27 -42 36 -64 9 -23 28 -46 45 -56 25
-14 30 -24 30 -53 0 -30 -9 -46 -54 -93 -30 -32 -58 -71 -61 -87 -4 -17 -18
-41 -30 -55 -13 -14 -26 -36 -30 -50 -4 -14 -17 -36 -30 -50 -12 -14 -25 -37
-29 -52 -3 -14 -17 -40 -31 -56 -14 -17 -28 -45 -31 -64 -4 -18 -17 -49 -30
-68 -13 -20 -28 -57 -33 -84 -5 -26 -18 -57 -29 -69 -12 -12 -24 -42 -28 -67
-3 -25 -16 -63 -29 -85 -17 -31 -24 -63 -28 -141 -5 -80 -11 -111 -30 -146
-20 -37 -25 -67 -31 -162 -4 -63 -17 -151 -28 -193 -19 -71 -21 -113 -25 -460
-4 -375 -4 -385 21 -520 14 -76 28 -192 32 -258 5 -97 11 -130 31 -172 18 -39
26 -76 30 -145 4 -74 10 -100 28 -128 13 -19 26 -51 30 -70 4 -19 17 -51 29
-70 13 -19 26 -53 30 -74 4 -22 18 -54 32 -71 13 -18 24 -43 24 -58 0 -14 11
-38 24 -54 13 -15 33 -47 44 -70 12 -23 26 -44 31 -47 5 -4 15 -23 22 -44 6
-20 22 -50 35 -65 13 -15 26 -43 30 -61 3 -19 17 -44 30 -57 13 -12 24 -31 24
-41 0 -10 14 -30 30 -45 17 -14 30 -31 30 -37 0 -7 12 -23 28 -38 15 -14 41
-44 57 -67 17 -23 44 -57 60 -76 17 -18 44 -52 60 -75 27 -37 67 -85 108 -129
8 -9 30 -29 49 -44 106 -89 154 -133 165 -152 7 -12 23 -29 37 -38 13 -9 27
-25 31 -36 3 -11 16 -23 28 -27 25 -8 82 -52 135 -106 21 -21 47 -38 58 -38
11 0 35 -16 54 -35 19 -19 40 -35 47 -35 7 0 28 -14 47 -30 18 -17 49 -37 68
-44 19 -8 41 -22 48 -31 17 -20 83 -55 105 -55 20 0 35 40 35 97 0 31 8 60 25
88 13 24 27 62 31 86 3 24 17 60 29 79 13 20 26 59 30 92 3 32 15 68 26 81 10
14 24 49 30 78 6 30 19 67 30 82 11 15 25 56 30 90 6 34 20 75 32 92 11 16 24
54 28 84 4 30 17 68 30 84 16 21 24 52 30 108 5 54 14 87 28 106 12 15 26 55
32 88 6 33 21 76 34 95 12 19 25 57 29 84 4 30 15 59 27 72 12 13 23 43 28 76
4 32 16 67 29 83 29 36 30 91 2 100 -17 5 -84 68 -161 152 -15 15 -36 46 -48
68 -12 22 -33 56 -46 75 -23 34 -32 45 -94 121 -16 19 -33 47 -36 62 -4 14
-17 33 -30 41 -13 8 -26 30 -30 48 -4 18 -18 47 -31 65 -13 17 -24 40 -24 51
0 11 -13 44 -29 73 -21 41 -31 75 -36 134 -4 44 -16 105 -26 135 -26 75 -26
231 0 297 10 26 22 86 26 133 6 65 14 98 36 139 16 30 29 60 29 67 0 8 11 21
24 30 14 8 28 28 31 43 3 16 17 39 31 51 13 13 24 29 24 35 0 14 61 94 129
171 26 28 61 69 78 92 19 24 45 43 62 47 15 3 39 17 52 31 13 13 48 32 79 40
30 9 71 27 91 41 22 14 61 28 95 33 33 4 94 20 136 34 66 23 93 26 200 26 109
0 130 -3 183 -26 33 -14 84 -29 113 -34 36 -6 64 -19 87 -39 18 -16 47 -32 63
-36 16 -3 40 -17 53 -31 13 -14 38 -31 54 -38 48 -21 154 -135 169 -184 4 -12
16 -27 27 -32 10 -6 19 -17 19 -24 0 -8 16 -33 35 -56 19 -23 35 -46 35 -51 0
-5 14 -28 30 -51 17 -22 30 -49 30 -59 0 -9 11 -31 25 -47 14 -17 29 -53 35
-83 6 -29 19 -62 29 -73 12 -13 22 -43 27 -76 3 -30 16 -71 28 -90 20 -33 21
-49 21 -240 0 -183 -2 -209 -18 -234 -11 -15 -23 -57 -28 -91 -5 -40 -18 -78
-34 -101 -14 -20 -25 -47 -25 -59 0 -12 -13 -39 -30 -60 -16 -21 -30 -44 -30
-51 0 -11 -46 -71 -143 -188 -78 -94 -103 -121 -112 -125 -5 -2 -26 -20 -46
-40 -20 -20 -50 -43 -67 -53 -47 -25 -63 -64 -50 -123 6 -27 19 -61 30 -75 11
-15 23 -56 29 -96 5 -41 18 -80 30 -97 12 -16 24 -52 28 -81 4 -29 17 -69 30
-89 12 -20 27 -66 32 -103 5 -38 18 -79 30 -95 14 -20 22 -51 26 -101 4 -51
13 -86 29 -115 13 -23 28 -71 33 -107 6 -38 18 -78 31 -96 12 -16 23 -52 27
-82 3 -31 15 -68 29 -88 14 -22 27 -61 33 -103 6 -40 18 -77 30 -92 11 -15 22
-50 26 -83 4 -31 17 -75 30 -97 13 -22 30 -78 39 -125 23 -122 53 -142 121
-80 17 15 46 33 66 39 20 7 45 21 55 32 10 11 34 27 52 35 19 7 43 25 54 39
10 13 36 29 57 35 22 6 46 21 55 35 9 14 33 29 55 35 23 6 46 21 55 35 10 14
32 33 51 42 18 9 39 26 46 39 7 13 16 24 21 24 5 0 59 52 122 115 62 63 118
115 125 115 16 0 101 88 101 105 0 8 8 20 18 27 11 7 24 23 30 35 7 11 25 36
41 53 56 61 66 74 86 106 38 60 60 89 87 116 16 14 28 31 28 38 0 7 11 25 25
42 13 16 29 46 35 67 5 21 19 46 30 56 11 10 22 33 26 51 3 19 19 50 35 70 16
20 29 43 29 50 0 7 11 26 25 42 13 16 29 48 34 71 5 24 18 53 29 64 11 12 24
44 28 72 4 28 17 62 29 77 13 15 25 47 29 79 4 28 16 70 27 91 13 25 25 83 34
157 9 74 21 132 34 157 15 30 22 74 30 184 5 80 18 179 27 220 26 111 26 521
2 601 -10 31 -25 135 -33 230 -9 96 -23 196 -31 222 -9 26 -21 110 -28 187 -9
95 -18 146 -29 164 -10 14 -22 49 -28 78 -6 29 -22 71 -34 93 -13 22 -26 54
-30 71 -3 18 -15 40 -26 50 -10 9 -24 36 -30 58 -6 23 -21 52 -34 66 -12 14
-26 38 -29 54 -4 16 -18 43 -32 59 -13 16 -24 39 -24 51 0 12 -11 33 -25 46
-13 12 -30 39 -36 59 -6 20 -20 45 -30 56 -10 11 -25 37 -34 58 -8 20 -20 37
-26 37 -5 0 -15 13 -22 28 -7 16 -23 43 -37 60 -14 18 -40 51 -57 75 -49 64
-76 96 -104 125 -14 15 -30 34 -35 44 -9 16 -87 107 -154 179 -97 105 -268
253 -327 283 -18 9 -37 25 -43 37 -6 11 -30 29 -53 39 -23 10 -53 30 -66 44
-13 14 -29 26 -37 26 -7 0 -23 13 -35 29 -13 18 -38 34 -64 41 -24 7 -54 23
-66 36 -12 13 -45 30 -73 38 -29 9 -62 26 -75 40 -17 18 -37 25 -86 31 -49 5
-73 13 -100 35 -27 22 -52 31 -96 36 -42 5 -73 16 -105 37 -39 25 -60 31 -141
39 -65 6 -116 17 -157 34 -57 24 -77 27 -316 36 -329 14 -518 2 -601 -36 -32
-15 -90 -30 -135 -36 -56 -7 -89 -17 -118 -36 -26 -17 -61 -29 -103 -34 -44
-6 -78 -17 -111 -39 -32 -20 -67 -33 -105 -37 -41 -5 -68 -15 -93 -35 -19 -15
-53 -30 -75 -34 -22 -4 -55 -19 -72 -35 -18 -15 -42 -30 -55 -34 -12 -4 -35
-18 -51 -32 -16 -13 -46 -31 -68 -40 -21 -9 -53 -29 -71 -45 -18 -16 -39 -29
-47 -29 -8 0 -32 -15 -52 -33 -21 -18 -50 -38 -65 -44 -14 -7 -29 -21 -33 -31
-3 -11 -24 -28 -47 -37 -23 -9 -53 -27 -67 -41 -156 -151 -207 -205 -227 -236
-13 -20 -28 -39 -34 -43 -6 -4 -22 -31 -35 -61 -14 -31 -30 -54 -39 -54 -8 0
-29 21 -46 46 -29 42 -32 53 -35 142 -6 139 -22 296 -40 380 -8 40 -20 128
-26 195 -6 67 -19 164 -29 215 -11 51 -26 163 -35 250 -8 86 -24 186 -35 222
-10 36 -22 90 -25 120 -4 30 -17 80 -30 110 -12 30 -26 77 -30 105 -4 27 -16
67 -27 88 -11 22 -24 67 -29 100 -6 34 -19 75 -29 92 -10 17 -24 53 -30 79 -6
27 -20 61 -30 77 -11 15 -24 50 -30 77 -5 27 -20 70 -34 97 -14 26 -26 64 -26
84 0 20 -13 63 -30 96 -16 33 -30 71 -30 85 0 14 -14 52 -30 85 -16 33 -30 72
-30 86 0 14 -11 46 -24 71 -13 25 -27 60 -31 79 -4 19 -17 50 -30 69 -13 19
-27 53 -30 75 -4 22 -18 56 -30 75 -13 19 -26 51 -30 70 -4 19 -17 53 -30 75
-13 22 -26 58 -30 80 -4 22 -17 58 -30 80 -12 22 -26 56 -30 75 -4 19 -17 51
-30 70 -13 19 -26 51 -30 70 -4 19 -16 45 -26 58 -10 13 -25 45 -34 72 -9 27
-23 54 -30 60 -8 7 -20 31 -26 54 -6 22 -21 57 -34 76 -13 19 -26 54 -30 77
-4 23 -15 54 -26 67 -11 14 -24 50 -30 81 -6 31 -21 71 -33 90 -13 18 -26 51
-29 73 -4 21 -16 50 -27 64 -10 14 -24 44 -29 67 -5 23 -20 59 -34 79 -14 20
-28 50 -31 66 -4 16 -16 40 -26 53 -10 14 -26 48 -34 77 -9 30 -22 59 -30 65
-8 7 -18 27 -22 44 -3 18 -20 56 -35 86 -16 30 -29 64 -29 76 0 12 -10 34 -21
49 -12 15 -28 48 -35 74 -8 25 -23 55 -33 66 -10 12 -22 35 -25 51 -4 17 -21
50 -37 74 -16 25 -29 49 -29 54 0 6 -11 24 -24 41 -13 17 -27 42 -31 56 -4 14
-18 38 -31 53 -13 15 -28 45 -34 66 -5 21 -17 44 -25 51 -8 7 -20 31 -26 54
-6 22 -19 50 -29 61 -10 11 -28 39 -41 63 -13 24 -33 60 -45 82 -11 21 -31 50
-42 65 -12 15 -22 33 -22 40 0 7 -13 29 -29 49 -16 20 -32 50 -36 65 -3 16
-17 39 -31 51 -13 13 -24 29 -24 35 0 7 -13 29 -30 50 -16 21 -30 45 -30 55 0
9 -12 35 -28 56 -15 21 -33 50 -40 64 -13 26 -47 77 -80 120 -36 47 -79 173
-91 269 -6 51 -20 110 -30 130 -10 20 -23 64 -29 98 -6 33 -19 81 -30 105 -11
23 -23 59 -27 78 -7 31 -36 96 -82 185 -9 17 -27 51 -39 77 -13 25 -28 49 -33
53 -6 3 -20 25 -31 48 -37 74 -69 129 -84 146 -8 9 -22 32 -31 51 -23 50 -76
126 -137 194 -16 17 -56 65 -89 106 -119 145 -207 233 -249 249 -19 8 -46 24
-60 37 -14 13 -41 30 -61 38 -19 8 -42 22 -49 31 -8 9 -30 25 -50 35 -21 11
-50 30 -66 43 -16 13 -50 31 -76 41 -25 9 -52 24 -59 32 -6 8 -37 21 -68 30
-31 9 -72 27 -91 40 -19 13 -66 30 -105 38 -38 8 -97 25 -130 37 -53 20 -83
22 -265 25 -113 2 -226 -1 -252 -6z"/>
<path d="M4975 33085 c-43 -53 -55 -90 -55 -165 1 -55 8 -76 45 -122 73 -90
186 -45 210 85 14 72 -3 141 -47 197 -35 44 -44 50 -78 50 -32 0 -43 -6 -75
-45z"/>
<path d="M3744 28846 c-3 -14 -16 -32 -28 -40 -14 -9 -28 -34 -36 -63 -7 -26
-23 -60 -35 -75 -12 -14 -25 -44 -28 -66 -4 -21 -17 -52 -29 -67 -14 -18 -25
-50 -29 -85 -4 -33 -15 -70 -27 -86 -12 -16 -25 -59 -31 -97 -5 -37 -19 -83
-31 -101 -14 -24 -23 -63 -30 -135 -5 -55 -16 -117 -25 -138 -9 -20 -23 -77
-31 -126 -8 -48 -22 -107 -30 -130 -8 -23 -21 -91 -29 -152 -8 -60 -21 -130
-30 -155 -9 -24 -22 -108 -30 -185 -9 -77 -22 -163 -30 -191 -8 -29 -22 -132
-30 -229 -9 -98 -22 -206 -30 -239 -8 -34 -21 -167 -30 -296 -8 -129 -23 -291
-33 -360 -15 -109 -17 -217 -17 -860 1 -500 5 -770 13 -845 17 -156 30 -313
42 -512 6 -95 17 -209 25 -255 8 -46 22 -155 30 -243 9 -88 22 -187 30 -220 7
-34 21 -114 29 -178 9 -65 24 -153 35 -195 11 -42 24 -112 30 -155 6 -43 18
-91 26 -107 9 -16 20 -67 26 -112 6 -46 19 -103 30 -126 10 -24 23 -83 29
-130 6 -50 19 -101 30 -119 10 -18 24 -60 30 -93 6 -34 22 -82 36 -107 13 -25
24 -56 24 -68 0 -12 11 -38 24 -58 13 -19 31 -60 40 -90 9 -30 22 -60 30 -66
7 -6 19 -31 25 -55 6 -23 19 -53 29 -67 11 -13 25 -42 32 -64 7 -22 21 -50 32
-62 11 -12 24 -43 29 -69 5 -26 17 -57 28 -68 10 -12 23 -35 28 -51 6 -17 22
-48 37 -69 14 -21 26 -47 26 -56 0 -9 14 -34 30 -55 17 -21 30 -43 30 -50 0
-6 11 -22 24 -35 14 -12 28 -35 31 -51 4 -15 20 -45 36 -65 16 -20 29 -45 29
-54 0 -10 9 -29 20 -43 12 -15 28 -49 36 -77 8 -27 19 -50 24 -50 5 0 17 -15
26 -32 9 -18 25 -42 35 -53 17 -19 30 -42 87 -150 8 -16 26 -43 39 -58 12 -16
23 -35 23 -42 0 -7 11 -26 24 -42 13 -15 34 -48 47 -72 50 -91 77 -135 129
-211 10 -14 27 -45 39 -68 12 -24 31 -52 41 -62 11 -11 20 -25 20 -31 0 -6 12
-27 28 -45 70 -87 80 -101 92 -138 7 -21 23 -54 36 -74 13 -19 24 -40 24 -47
0 -6 14 -24 30 -38 17 -15 30 -33 30 -41 0 -7 7 -19 15 -26 12 -10 18 -10 30
0 23 19 18 51 -15 113 -16 31 -30 62 -30 69 0 7 -16 44 -35 82 -19 39 -35 75
-35 82 0 7 -9 28 -19 46 -11 18 -24 60 -30 93 -6 32 -22 75 -35 95 -13 19 -26
53 -29 74 -4 21 -15 48 -26 60 -10 12 -24 40 -30 62 -6 23 -20 53 -31 66 -10
14 -24 47 -30 73 -6 26 -19 59 -30 72 -10 13 -22 38 -25 56 -4 18 -18 51 -32
75 -13 23 -30 61 -38 85 -26 82 -91 233 -146 339 -16 31 -29 62 -29 68 0 7
-11 25 -25 41 -13 16 -27 46 -31 67 -3 20 -17 53 -29 72 -13 19 -27 52 -30 73
-4 20 -16 49 -27 62 -11 14 -26 53 -34 86 -8 33 -20 73 -28 88 -8 15 -22 57
-30 93 -8 36 -24 81 -34 99 -11 19 -23 54 -26 78 -4 24 -17 62 -30 85 -13 22
-26 63 -30 91 -3 27 -15 68 -27 91 -11 24 -25 73 -31 111 -5 37 -18 82 -29 99
-10 17 -23 64 -29 105 -6 41 -20 98 -31 128 -11 29 -24 101 -30 160 -5 58 -18
135 -29 171 -10 36 -24 111 -30 168 -6 56 -18 124 -26 150 -8 26 -23 137 -34
247 -11 110 -24 223 -30 250 -24 120 -34 572 -22 1045 6 256 16 485 21 510 6
25 17 126 26 225 8 99 24 223 35 275 11 52 24 148 30 213 7 65 18 137 27 160
8 23 21 116 28 207 9 107 20 185 33 221 11 31 25 100 31 155 6 55 19 128 31
163 11 34 24 100 30 146 6 46 17 103 26 127 8 24 22 87 30 142 8 54 22 112 30
128 8 16 20 66 25 111 6 45 22 118 35 162 13 44 26 100 30 125 3 25 15 78 25
119 10 41 23 113 29 160 7 54 20 104 34 133 14 27 27 75 31 115 4 37 17 93 30
123 13 30 26 82 30 115 3 33 15 77 25 98 14 26 20 57 20 102 0 67 -15 95 -26
48 -12 -58 -26 -92 -44 -115 -10 -14 -26 -53 -35 -87 -9 -35 -25 -75 -35 -90
-10 -14 -23 -56 -29 -93 -7 -37 -20 -82 -30 -100 -10 -18 -22 -55 -26 -83 -4
-28 -16 -61 -30 -76 -12 -15 -26 -48 -29 -72 -4 -24 -18 -59 -31 -78 -14 -18
-25 -41 -25 -50 0 -21 -10 -44 -55 -124 -19 -33 -44 -80 -56 -105 -12 -25 -32
-58 -45 -73 -13 -16 -24 -34 -24 -41 0 -21 -94 -103 -126 -110 -53 -11 -87 6
-111 54 -52 107 -56 138 -50 354 3 110 12 237 20 281 8 44 20 141 26 215 8 91
19 158 35 205 14 39 27 101 30 139 3 44 13 81 27 105 12 20 25 64 29 97 5 37
16 73 29 90 11 16 25 53 31 83 5 30 20 73 31 97 12 23 19 50 16 58 -10 24 -36
19 -43 -8z"/>
<path d="M18575 25532 c-88 -16 -207 -93 -228 -147 -5 -11 -17 -30 -28 -41
-11 -12 -27 -48 -35 -79 -9 -32 -22 -68 -30 -80 -8 -12 -21 -76 -29 -142 -7
-65 -22 -159 -32 -208 -16 -80 -18 -145 -17 -605 0 -450 3 -542 22 -725 11
-115 26 -295 32 -400 6 -104 19 -244 30 -310 10 -66 24 -199 30 -295 6 -96 17
-224 25 -285 8 -60 21 -236 30 -390 9 -154 23 -314 31 -355 8 -41 19 -138 25
-215 5 -77 15 -162 20 -190 5 -27 19 -122 29 -209 22 -186 28 -213 47 -242 7
-12 18 -50 24 -85 6 -36 20 -79 34 -99 12 -19 26 -46 30 -60 12 -41 112 -155
176 -200 27 -20 67 -54 119 -103 14 -13 39 -31 56 -40 18 -9 41 -29 52 -43 32
-45 115 -31 96 16 -4 8 -13 33 -21 54 -8 22 -25 52 -38 67 -13 16 -26 42 -30
58 -3 16 -15 37 -25 46 -11 10 -26 41 -35 70 -8 29 -21 58 -29 64 -8 7 -20 35
-26 63 -6 29 -19 66 -30 83 -28 45 -80 332 -80 437 0 92 48 299 71 307 7 2 27
19 45 36 18 18 48 36 66 40 18 4 58 18 88 32 34 16 93 31 155 40 55 7 143 20
195 29 174 28 451 37 735 25 143 -7 296 -16 340 -21 44 -5 226 -19 405 -30
179 -12 375 -30 435 -40 61 -11 200 -26 310 -35 110 -9 240 -25 288 -35 48
-11 163 -27 255 -35 92 -9 221 -28 287 -43 119 -27 124 -27 493 -27 416 0 397
-3 388 70 -6 48 -20 59 -94 74 -32 6 -68 19 -81 27 -13 9 -73 30 -135 45 -61
16 -136 35 -166 44 -30 8 -77 15 -105 15 -80 0 -212 19 -310 45 -49 13 -141
31 -204 40 -63 9 -132 23 -155 31 -23 8 -102 24 -175 35 -74 11 -163 28 -197
38 -34 11 -115 27 -180 36 -66 8 -146 24 -179 35 -33 10 -114 26 -180 35 -66
9 -147 25 -180 35 -79 24 -94 27 -200 40 -49 6 -115 17 -145 25 -30 8 -131 23
-225 35 -93 11 -199 30 -235 41 -36 12 -127 29 -202 40 -76 10 -155 26 -175
34 -21 9 -100 25 -176 35 -76 10 -171 30 -210 44 -40 13 -85 27 -100 31 -15 3
-53 30 -83 60 -42 42 -54 62 -55 87 -4 78 4 115 32 157 16 25 29 49 29 54 0
12 74 111 114 151 42 44 126 157 126 171 0 7 7 19 16 26 9 8 25 32 35 54 10
22 27 51 38 65 10 14 40 57 65 95 26 39 62 90 81 115 19 25 43 56 52 70 9 14
27 38 40 53 13 16 23 36 23 46 0 19 54 109 94 157 14 18 26 36 26 41 0 5 14
22 30 38 17 16 30 34 30 41 0 6 7 18 16 25 27 22 116 159 159 244 32 62 69
114 95 132 11 8 20 20 20 28 0 8 14 30 30 48 17 19 30 38 30 41 0 9 63 104 94
142 14 18 26 37 26 43 0 5 14 26 30 44 17 19 30 39 30 44 0 6 12 26 28 46 15
19 35 48 44 64 10 15 31 48 48 73 17 25 38 58 48 73 9 16 29 45 45 64 15 20
27 42 27 49 0 7 11 26 25 42 14 17 32 49 40 73 9 24 22 50 29 59 15 16 36 171
36 262 0 64 -15 122 -37 144 -13 12 -31 15 -83 12 -57 -3 -71 -8 -109 -38 -80
-64 -141 -123 -141 -135 0 -7 -13 -29 -30 -50 -16 -21 -30 -42 -30 -47 0 -5
-11 -24 -24 -41 -13 -18 -29 -48 -35 -67 -6 -20 -20 -43 -31 -53 -11 -9 -20
-23 -20 -30 0 -7 -12 -29 -26 -48 -14 -19 -32 -50 -40 -69 -8 -19 -23 -44 -34
-55 -10 -11 -22 -32 -25 -47 -4 -14 -15 -34 -26 -43 -10 -10 -25 -42 -34 -72
-9 -30 -22 -56 -30 -59 -8 -3 -17 -16 -21 -27 -4 -12 -18 -36 -33 -54 -55 -67
-121 -161 -150 -213 -10 -19 -28 -43 -39 -53 -11 -10 -26 -32 -32 -48 -7 -16
-16 -29 -21 -29 -5 0 -15 -12 -21 -27 -13 -30 -81 -112 -248 -302 -30 -35 -59
-70 -64 -79 -6 -10 -20 -25 -32 -35 -13 -10 -26 -26 -29 -37 -3 -10 -14 -21
-23 -25 -9 -3 -53 -40 -98 -83 -44 -42 -118 -111 -163 -152 -46 -41 -97 -87
-113 -102 -16 -16 -33 -28 -37 -28 -5 0 -28 -16 -51 -35 -50 -42 -74 -44 -97
-7 -9 15 -26 38 -37 50 -20 23 -21 34 -20 385 0 309 3 388 22 537 21 170 35
376 47 725 9 233 -14 485 -45 485 -4 0 -14 15 -21 33 -22 55 -79 114 -127 133
-58 22 -102 31 -127 26z"/>
<path d="M17165 25333 c-22 -2 -98 -12 -170 -23 -71 -10 -159 -22 -195 -25
-36 -4 -100 -15 -144 -26 -43 -11 -127 -28 -187 -38 -66 -12 -128 -29 -156
-44 -27 -13 -76 -32 -109 -40 -34 -9 -79 -27 -99 -41 -21 -15 -46 -26 -55 -26
-9 0 -35 -12 -56 -27 -21 -14 -62 -36 -89 -48 -28 -13 -56 -29 -63 -37 -6 -8
-34 -25 -62 -38 -27 -13 -50 -27 -50 -32 0 -4 -19 -17 -42 -29 -47 -24 -88
-54 -147 -109 -21 -19 -49 -44 -62 -56 -49 -43 -152 -165 -171 -201 -23 -47
-57 -101 -84 -136 -12 -14 -24 -45 -28 -68 -4 -22 -15 -58 -26 -79 -11 -21
-24 -69 -30 -106 -6 -38 -20 -105 -32 -149 -26 -101 -21 -267 11 -355 11 -30
21 -77 21 -105 0 -35 9 -68 30 -110 16 -33 30 -67 30 -76 0 -9 14 -33 30 -54
17 -21 30 -42 30 -46 0 -11 78 -125 110 -162 124 -141 331 -320 404 -351 21
-9 54 -29 72 -46 19 -16 41 -30 49 -30 8 0 29 -13 47 -29 18 -15 49 -36 68
-46 19 -10 48 -28 63 -41 16 -13 34 -24 42 -24 7 0 35 -15 61 -33 27 -19 64
-39 82 -45 19 -6 47 -23 63 -37 17 -13 55 -32 86 -41 30 -9 70 -24 87 -34 17
-10 49 -23 71 -30 22 -7 55 -23 72 -37 18 -13 51 -30 73 -38 23 -8 53 -24 67
-35 14 -11 44 -25 67 -31 22 -6 61 -23 86 -39 25 -15 62 -33 82 -39 20 -7 42
-18 48 -26 7 -8 37 -24 68 -35 32 -12 80 -34 107 -49 28 -16 64 -32 80 -35 42
-10 193 -84 233 -115 92 -72 135 -125 158 -197 l23 -71 -22 -54 c-12 -30 -31
-67 -42 -82 -43 -60 -99 -123 -121 -135 -13 -7 -24 -17 -24 -22 0 -5 -17 -20
-37 -33 -21 -14 -53 -38 -72 -56 -18 -17 -39 -31 -46 -31 -8 0 -27 -11 -43
-25 -16 -13 -54 -30 -83 -36 -30 -6 -74 -24 -98 -40 -25 -16 -52 -29 -62 -29
-9 0 -43 -14 -75 -31 -32 -17 -88 -37 -124 -45 -36 -9 -87 -26 -115 -39 -27
-13 -89 -30 -136 -39 -47 -9 -112 -25 -143 -36 -61 -21 -370 -56 -611 -70
-157 -8 -278 -33 -306 -61 -49 -49 -36 -107 42 -181 98 -92 248 -155 474 -200
62 -13 208 -5 295 16 36 8 111 22 168 30 58 9 125 26 155 40 28 13 79 30 112
36 33 7 80 23 105 35 25 12 60 26 79 30 19 4 68 25 108 46 41 22 82 39 92 39
10 0 35 11 55 25 20 13 64 32 98 41 34 8 72 23 84 33 12 10 44 26 71 36 26 10
60 28 75 41 15 12 44 28 65 34 21 7 49 23 63 36 14 12 41 30 61 38 19 8 42 22
50 32 7 9 34 25 58 36 50 21 90 51 164 123 42 41 55 61 68 110 9 33 24 78 33
100 23 60 21 192 -5 263 -11 31 -25 88 -30 125 -5 38 -17 80 -27 95 -11 15
-24 42 -30 60 -6 18 -22 46 -34 63 -13 16 -37 48 -55 72 -111 148 -289 331
-353 362 -19 10 -44 25 -55 35 -11 10 -38 23 -60 30 -22 7 -55 25 -72 41 -18
15 -47 32 -65 37 -18 5 -50 20 -70 34 -21 14 -54 29 -75 33 -21 4 -67 19 -103
35 -36 16 -97 34 -135 41 -39 6 -97 22 -130 34 -33 13 -87 28 -120 35 -33 7
-80 22 -105 35 -25 12 -80 30 -123 39 -72 16 -174 56 -237 91 -14 8 -53 28
-86 44 -34 16 -65 34 -69 40 -3 6 -28 22 -55 36 -27 14 -53 31 -57 38 -4 8
-21 22 -38 32 -30 19 -79 57 -145 115 -108 93 -140 124 -140 135 0 6 -11 22
-25 35 -14 13 -25 29 -25 36 0 7 -13 28 -29 46 -15 18 -34 50 -40 70 -7 20
-19 42 -26 48 -8 7 -22 35 -30 63 -8 28 -23 62 -32 76 -15 22 -18 49 -18 176
1 127 4 158 22 205 11 30 24 75 28 100 4 25 17 61 30 80 12 19 28 52 35 73 6
20 16 37 21 37 4 0 16 14 25 32 26 50 159 168 216 192 19 8 40 22 47 30 7 8
36 23 64 32 29 9 70 27 92 40 23 13 74 30 115 39 41 9 107 26 145 40 39 13
113 28 165 34 52 7 136 22 185 36 50 13 122 27 160 30 39 4 111 18 161 31 51
13 127 31 170 40 43 8 90 24 104 34 14 10 52 30 83 44 32 14 60 32 63 41 4 9
18 22 33 29 39 21 180 161 191 191 21 54 13 75 -35 96 -113 50 -237 66 -400
52z"/>
<path d="M17760 20070 c-178 -8 -197 -10 -340 -45 -52 -13 -120 -26 -150 -30
-30 -4 -75 -17 -100 -30 -25 -12 -77 -32 -117 -44 -39 -12 -76 -28 -83 -36 -6
-7 -28 -19 -48 -26 -20 -6 -54 -22 -74 -36 -32 -21 -59 -28 -168 -39 -110 -12
-141 -19 -197 -46 -57 -27 -81 -32 -168 -37 -89 -5 -107 -9 -141 -33 -21 -15
-58 -30 -82 -34 -24 -4 -62 -19 -85 -35 -27 -18 -62 -30 -97 -35 -33 -4 -77
-19 -108 -36 -76 -43 -103 -36 -185 46 -36 36 -72 66 -80 66 -8 0 -39 11 -69
25 -76 35 -106 33 -166 -15 -54 -42 -57 -47 -67 -125 -4 -27 -15 -69 -25 -93
-15 -34 -18 -56 -13 -107 4 -47 1 -74 -11 -104 -9 -23 -16 -59 -16 -81 0 -34
-7 -46 -60 -101 -41 -42 -62 -72 -66 -96 -11 -57 2 -146 28 -199 48 -94 61
-150 49 -199 -6 -25 -11 -109 -10 -187 1 -129 -2 -155 -29 -258 -17 -64 -37
-165 -45 -226 -11 -88 -19 -119 -41 -150 -34 -50 -37 -142 -6 -181 23 -30 26
-70 6 -117 -7 -18 -17 -61 -21 -94 -10 -84 -36 -120 -103 -143 -30 -10 -68
-27 -85 -38 -18 -10 -67 -27 -110 -36 -85 -19 -108 -38 -127 -104 -21 -72 -22
-125 -5 -186 40 -139 59 -150 237 -141 73 3 137 2 152 -3 34 -13 43 -68 52
-316 9 -222 9 -238 4 -380 -3 -85 -1 -107 17 -145 11 -25 24 -74 27 -110 6
-61 26 -186 62 -390 8 -47 26 -109 40 -137 19 -42 26 -75 31 -164 5 -97 9
-115 30 -139 13 -16 30 -45 39 -67 9 -21 26 -50 38 -64 11 -15 29 -40 38 -57
13 -24 29 -35 73 -47 96 -28 116 -14 203 157 36 69 53 117 61 167 21 136 11
202 -40 256 -27 29 -29 36 -29 120 0 126 -17 256 -40 315 -11 28 -25 83 -31
123 -5 39 -22 106 -36 147 -25 74 -28 125 -21 310 1 19 -10 93 -25 164 -33
160 -37 320 -9 376 23 47 79 76 190 99 50 10 103 26 117 35 14 9 59 26 100 36
40 10 91 28 113 39 21 11 70 27 108 36 38 8 94 26 124 39 33 14 95 29 155 36
88 10 107 16 155 48 46 30 63 36 102 35 36 -2 54 3 75 21 39 31 199 86 253 86
56 0 126 21 184 55 32 19 78 32 159 45 63 10 127 25 144 33 16 9 70 23 119 32
49 9 109 26 134 36 56 25 167 49 226 49 30 0 61 9 97 29 36 20 77 33 132 41
44 5 105 17 135 26 30 8 125 19 211 24 171 10 207 19 254 70 17 17 44 38 60
45 17 7 46 26 65 43 34 29 35 31 33 101 -5 179 -69 213 -328 176 -55 -8 -132
-15 -170 -15 -42 0 -78 -5 -90 -13 -11 -8 -56 -25 -100 -39 -65 -20 -94 -24
-157 -20 -60 3 -91 0 -140 -17 -35 -11 -118 -29 -185 -40 -67 -11 -135 -27
-151 -35 -15 -8 -57 -22 -92 -31 -35 -9 -77 -23 -94 -32 -16 -8 -82 -23 -146
-34 -77 -12 -134 -27 -167 -44 -27 -14 -77 -30 -110 -35 -35 -4 -82 -21 -114
-38 -51 -29 -63 -31 -199 -37 -121 -6 -148 -10 -165 -26 -12 -10 -46 -27 -76
-38 -30 -10 -73 -28 -96 -39 -22 -12 -83 -28 -134 -36 -52 -9 -113 -22 -136
-30 -23 -8 -67 -20 -98 -25 -31 -6 -67 -19 -81 -30 -18 -14 -34 -18 -64 -14
-27 4 -52 -1 -82 -15 -78 -36 -143 -51 -183 -42 -61 14 -73 48 -56 155 7 42
10 104 6 142 -5 58 -3 79 20 142 25 70 26 86 26 250 1 178 11 255 45 336 10
25 19 89 24 182 7 137 9 144 40 193 40 62 94 106 157 127 26 9 61 27 76 40 16
12 35 23 43 23 7 0 37 21 66 48 76 68 114 89 193 105 39 8 86 24 105 35 19 11
64 28 100 37 35 9 82 27 105 40 22 12 63 28 90 34 28 7 68 23 90 35 22 12 67
28 100 35 33 7 74 21 91 32 16 10 68 27 115 38 46 11 104 29 129 40 25 11 90
27 145 36 55 8 134 25 175 37 60 17 108 21 240 23 91 2 190 8 220 14 40 8 83
8 160 0 101 -10 106 -12 143 -47 21 -21 45 -49 53 -64 8 -16 28 -31 51 -38 21
-7 53 -21 71 -32 42 -26 60 -21 164 43 131 81 121 61 116 234 l-4 150 -34 45
c-37 49 -87 86 -179 135 -31 17 -68 38 -81 47 -54 37 -185 43 -550 28z"/>
<path d="M4990 18094 c-14 -2 -39 -7 -56 -9 -38 -6 -99 -65 -214 -206 -17 -20
-30 -41 -30 -47 0 -6 -12 -24 -26 -41 -14 -17 -30 -48 -36 -68 -5 -21 -18 -47
-29 -59 -11 -12 -25 -53 -34 -100 -8 -43 -24 -119 -35 -169 -27 -123 -26 -144
12 -193 25 -32 47 -47 107 -71 42 -16 90 -32 108 -36 43 -9 52 -23 61 -90 6
-50 12 -62 43 -87 l36 -29 64 31 c108 51 160 39 260 -60 38 -38 69 -73 69 -79
0 -18 43 -51 67 -51 18 0 28 9 40 38 8 20 24 49 35 64 10 15 23 56 29 90 5 35
19 105 30 155 41 180 8 544 -62 688 -16 33 -29 65 -29 70 0 6 -18 28 -41 50
-22 21 -70 74 -106 116 -35 43 -74 80 -86 83 -34 8 -149 15 -177 10z"/>
<path d="M6820 17673 c-25 -15 -48 -32 -52 -39 -12 -18 -74 -93 -120 -144 -22
-25 -47 -61 -55 -80 -8 -19 -21 -42 -29 -51 -26 -30 -82 -128 -94 -166 -7 -21
-20 -51 -30 -68 -10 -16 -25 -68 -34 -115 -8 -47 -23 -110 -31 -140 -13 -45
-15 -96 -12 -275 3 -195 6 -226 25 -277 12 -32 22 -64 22 -71 0 -20 32 -46 66
-53 38 -7 88 21 115 65 16 26 25 31 59 31 48 0 52 -5 178 -229 50 -90 137 -80
176 22 12 33 29 52 65 75 27 18 61 32 75 32 38 0 140 -54 163 -86 40 -54 105
-2 119 96 4 25 13 63 21 84 19 57 32 192 42 442 9 228 1 396 -20 436 -6 13
-31 44 -55 69 -45 49 -79 110 -110 198 -25 72 -48 86 -147 87 -76 1 -79 2
-108 35 -16 19 -35 48 -43 64 -17 40 -78 85 -113 85 -15 -1 -48 -13 -73 -27z"/>
<path d="M16835 14629 c-21 -5 -50 -19 -63 -31 -25 -24 -103 -36 -242 -37 -63
-1 -81 -5 -112 -26 -33 -22 -54 -27 -165 -35 -199 -15 -284 -29 -333 -54 -25
-13 -72 -29 -105 -36 -33 -6 -85 -25 -116 -40 -68 -35 -151 -50 -277 -50 -81
0 -102 -4 -160 -29 -37 -16 -79 -32 -93 -36 -14 -4 -40 -19 -58 -35 -17 -16
-51 -34 -74 -39 -23 -6 -69 -20 -102 -32 -33 -12 -95 -30 -138 -40 -44 -11
-98 -30 -120 -43 -23 -13 -60 -29 -82 -36 -22 -7 -58 -25 -80 -40 -22 -14 -71
-41 -109 -58 -53 -25 -76 -31 -106 -26 -53 9 -86 -12 -172 -106 -84 -92 -97
-120 -97 -213 -1 -82 5 -96 78 -168 74 -72 119 -86 223 -69 40 6 102 25 138
40 36 16 85 34 109 40 24 6 72 27 108 46 36 19 71 34 78 34 8 0 29 13 47 29
18 15 49 36 68 46 19 9 44 25 55 35 11 10 47 26 80 35 33 10 72 24 86 33 32
18 56 11 68 -20 4 -13 11 -86 15 -163 8 -178 20 -282 48 -420 20 -99 23 -138
22 -380 0 -148 -2 -301 -4 -340 -2 -38 0 -95 4 -126 7 -44 5 -62 -8 -88 -16
-30 -16 -35 1 -79 26 -68 22 -143 -11 -237 -28 -80 -28 -82 -37 -435 -5 -195
-13 -377 -18 -405 -6 -27 -7 -88 -4 -135 4 -71 1 -102 -21 -187 -28 -111 -36
-228 -39 -590 -1 -200 0 -207 25 -258 37 -73 52 -156 49 -270 -2 -55 -4 -145
-5 -200 l-1 -101 45 -53 c98 -117 88 -110 188 -131 53 -11 107 -29 124 -41 28
-21 48 -23 255 -32 123 -5 234 -6 246 -3 30 8 166 144 359 360 38 42 71 67
115 87 34 16 65 34 69 40 3 6 30 22 59 35 29 12 56 28 60 35 4 6 36 24 70 40
34 15 67 35 75 44 8 9 30 25 49 35 20 10 45 28 56 40 11 12 37 31 58 41 20 11
37 24 37 29 0 5 17 19 38 30 99 55 365 292 615 550 19 19 46 51 61 71 14 20
52 50 84 67 43 23 64 42 82 74 13 24 38 58 54 75 17 18 47 50 67 70 20 21 84
92 144 158 59 66 120 133 136 148 16 15 36 42 45 60 23 45 66 95 166 196 49
49 94 104 102 122 8 19 24 43 37 54 12 11 30 39 40 61 11 23 37 64 59 90 22
27 40 53 40 59 0 6 16 28 36 49 20 21 42 53 50 72 8 19 26 45 40 57 14 12 36
43 49 68 13 25 31 51 40 59 9 8 29 39 45 70 16 31 36 63 45 70 10 8 32 46 50
85 17 38 39 76 48 83 9 8 26 43 38 80 12 36 34 86 50 110 17 27 32 70 39 115
7 40 23 100 35 134 33 86 51 328 33 434 -7 41 -13 116 -13 166 0 82 -2 94 -21
107 -11 8 -49 72 -84 142 -35 71 -80 145 -99 165 -20 21 -53 57 -73 81 -44 51
-154 172 -218 237 -50 52 -139 106 -211 127 -38 12 -61 29 -111 84 -62 68 -64
69 -132 80 -77 12 -104 24 -196 86 -56 38 -75 45 -145 54 -54 7 -88 17 -105
30 -49 40 -102 53 -275 69 -68 6 -116 17 -150 33 -44 20 -62 22 -155 19 -192
-6 -284 -6 -420 1 -77 4 -152 2 -175 -3z m734 -440 c115 -14 176 -26 204 -41
22 -11 88 -29 146 -39 86 -16 118 -27 175 -61 39 -23 84 -52 99 -65 16 -13 41
-26 55 -30 15 -3 50 -18 77 -34 28 -15 65 -30 84 -34 24 -5 55 -29 106 -81 40
-41 77 -74 83 -74 6 0 29 -17 50 -37 21 -21 64 -60 95 -88 46 -41 58 -59 68
-100 7 -27 29 -84 51 -125 36 -69 40 -84 50 -203 11 -124 11 -129 -14 -210
-14 -45 -30 -104 -36 -132 -25 -128 -66 -263 -91 -302 -16 -24 -33 -70 -40
-105 -23 -120 -55 -185 -136 -273 -35 -38 -85 -107 -122 -169 -10 -16 -34 -48
-54 -70 -20 -23 -42 -52 -49 -66 -7 -14 -28 -43 -47 -65 -76 -90 -215 -245
-288 -320 -43 -45 -90 -105 -106 -138 -17 -32 -36 -61 -45 -64 -8 -3 -22 -20
-31 -37 -8 -17 -33 -50 -53 -72 -21 -23 -45 -55 -54 -71 -8 -17 -26 -37 -39
-46 -14 -9 -34 -31 -46 -50 -11 -18 -31 -39 -45 -46 -13 -7 -28 -21 -32 -30
-12 -23 -299 -296 -464 -441 -28 -25 -67 -58 -85 -75 -19 -16 -57 -50 -85 -75
-28 -25 -70 -63 -95 -85 -24 -22 -65 -60 -92 -84 -26 -24 -59 -54 -73 -67 -26
-24 -61 -45 -185 -109 -38 -19 -85 -46 -103 -58 -99 -67 -133 -87 -168 -102
-21 -9 -48 -25 -59 -35 -11 -10 -38 -27 -60 -36 -22 -9 -52 -25 -68 -36 -28
-20 -168 -68 -200 -68 -10 0 -40 11 -66 25 -64 32 -77 66 -74 200 1 55 -7 186
-19 290 -27 250 -26 434 2 660 13 109 25 273 29 416 l6 235 35 65 35 64 -1
230 c0 165 -5 264 -18 350 -20 135 -23 317 -7 385 16 70 13 136 -9 185 -16 36
-22 80 -30 237 -6 106 -8 238 -4 293 4 66 0 145 -11 235 -9 74 -19 178 -22
231 -5 92 -4 98 22 144 36 60 70 75 174 75 69 0 86 4 137 31 34 18 92 36 136
44 42 8 108 23 145 35 37 12 126 28 197 36 81 10 154 25 195 40 97 37 151 46
301 50 74 2 160 7 190 12 67 12 164 7 379 -19z"/>
</g>
</svg>
